<?xml version="1.0" encoding="utf-8"?>
<!-- Generator: Adobe Illustrator 23.1.0, SVG Export Plug-In . SVG Version: 6.00 Build 0)  -->
<svg version="1.1" id="Слой_1" xmlns="http://www.w3.org/2000/svg" xmlns:xlink="http://www.w3.org/1999/xlink" x="0px" y="0px"
	 viewBox="0 0 23.73 28.64" style="enable-background:new 0 0 23.73 28.64;" xml:space="preserve">
<style type="text/css">
	.st0{clip-path:url(#SVGID_2_);fill:#FF6178;}
</style>
<g>
	<defs>
		<rect id="SVGID_1_" y="0" width="23.73" height="28.64"/>
	</defs>
	<clipPath id="SVGID_2_">
		<use xlink:href="#SVGID_1_"  style="overflow:visible;"/>
	</clipPath>
	<path class="st0" d="M23.42,8.86C21.9,2.95,16.5-0.62,10.16,0.09C4.63,0.71,0.14,5.72,0,11.51c-0.06,2.7,0.58,5.32,2.4,7.3
		c3.03,3.3,6.31,6.38,9.76,9.83c1.62-1.74,3.21-3.48,4.84-5.19c1.03-1.08,2.1-2.11,3.16-3.15c1.91-1.89,3.14-4.14,3.51-6.85
		C23.71,13.18,23.85,10.12,23.42,8.86 M8.07,11.94c0.02-2.07,1.84-3.87,3.88-3.84c2.05,0.02,3.83,1.85,3.8,3.91
		c-0.03,2.08-1.82,3.84-3.88,3.82C9.81,15.81,8.05,14.01,8.07,11.94"/>
</g>
</svg>
