<?xml version="1.0" encoding="utf-8"?>
<!-- Generator: Adobe Illustrator 23.1.0, SVG Export Plug-In . SVG Version: 6.00 Build 0)  -->
<svg version="1.1" id="Слой_1" xmlns="http://www.w3.org/2000/svg" xmlns:xlink="http://www.w3.org/1999/xlink" x="0px" y="0px"
	 viewBox="0 0 59.9 59.9" style="enable-background:new 0 0 59.9 59.9;" xml:space="preserve">
<style type="text/css">
	.st0{clip-path:url(#SVGID_2_);fill:#FF6178;}
</style>
<g>
	<defs>
		<rect id="SVGID_1_" y="0" width="59.9" height="59.9"/>
	</defs>
	<clipPath id="SVGID_2_">
		<use xlink:href="#SVGID_1_"  style="overflow:visible;"/>
	</clipPath>
	<path class="st0" d="M27,24V3c0-1.7,1.3-3,3-3c16.6,0,30,13.4,29.9,30c0,16.5-13.4,30-30,29.9C13.3,59.8,0,46.5,0,29.9
		c0-11,6-21.1,15.7-26.3c1.5-0.8,3.3-0.2,4.1,1.2c0.8,1.4,0.2,3.3-1.2,4.1C7,15.2,2.6,29.8,8.9,41.4s20.9,16,32.5,9.7
		s16-20.9,9.7-32.5C47.4,11.8,40.7,7.1,33,6.2V30c0,1.7-1.3,3-3,3c-0.6,0-1.3-0.2-1.8-0.6l-12-9c-1.3-1-1.5-2.9-0.5-4.2
		s2.8-1.5,4.1-0.6L27,24z"/>
</g>
</svg>
