<?xml version="1.0" encoding="utf-8"?>
<!-- Generator: Adobe Illustrator 23.1.0, SVG Export Plug-In . SVG Version: 6.00 Build 0)  -->
<svg version="1.1" id="Слой_1" xmlns="http://www.w3.org/2000/svg" xmlns:xlink="http://www.w3.org/1999/xlink" x="0px" y="0px"
	 viewBox="0 0 512 512" style="enable-background:new 0 0 512 512;" xml:space="preserve">
<style type="text/css">
	.st0{clip-path:url(#SVGID_2_);}
</style>
<g>
	<defs>
		<rect id="SVGID_1_" width="512" height="512"/>
	</defs>
	<clipPath id="SVGID_2_">
		<use xlink:href="#SVGID_1_"  style="overflow:visible;"/>
	</clipPath>
	<path class="st0" d="M386,190c11.05,0,20,8.95,20,20c0,11.05-8.95,20-20,20c-11.05,0-20-8.95-20-20C366,198.95,374.95,190,386,190"
		/>
	<path class="st0" d="M432,40h-26V20c0-11.05-8.95-20-20-20c-11.05,0-20,8.95-20,20v20h-91V20c0-11.05-8.95-20-20-20
		c-11.05,0-20,8.95-20,20v20h-90V20c0-11.05-8.95-20-20-20s-20,8.95-20,20v20H80C35.89,40,0,75.89,0,120v312c0,44.11,35.89,80,80,80
		h153c11.05,0,20-8.95,20-20s-8.95-20-20-20H80c-22.06,0-40-17.94-40-40V120c0-22.06,17.94-40,40-40h25v20c0,11.05,8.95,20,20,20
		s20-8.95,20-20V80h90v20c0,11.05,8.95,20,20,20c11.05,0,20-8.95,20-20V80h91v20c0,11.05,8.95,20,20,20c11.05,0,20-8.95,20-20V80h26
		c22.06,0,40,17.94,40,40v114c0,11.05,8.95,20,20,20c11.05,0,20-8.95,20-20V120C512,75.89,476.11,40,432,40"/>
	<path class="st0" d="M391,270c-66.72,0-121,54.28-121,121s54.28,121,121,121s121-54.28,121-121S457.72,270,391,270 M391,472
		c-44.66,0-81-36.34-81-81s36.34-81,81-81s81,36.34,81,81S435.66,472,391,472"/>
	<path class="st0" d="M420,371h-9v-21c0-11.05-8.95-20-20-20c-11.05,0-20,8.95-20,20v41c0,11.05,8.95,20,20,20h29
		c11.05,0,20-8.95,20-20C440,379.95,431.05,371,420,371"/>
	<path class="st0" d="M299,190c11.05,0,20,8.95,20,20c0,11.05-8.95,20-20,20c-11.05,0-20-8.95-20-20C279,198.95,287.95,190,299,190"
		/>
	<path class="st0" d="M212,277c11.05,0,20,8.95,20,20c0,11.05-8.95,20-20,20c-11.05,0-20-8.95-20-20C192,285.95,200.95,277,212,277"
		/>
	<path class="st0" d="M125,190c11.05,0,20,8.95,20,20c0,11.05-8.95,20-20,20c-11.05,0-20-8.95-20-20C105,198.95,113.95,190,125,190"
		/>
	<path class="st0" d="M125,277c11.05,0,20,8.95,20,20c0,11.05-8.95,20-20,20c-11.05,0-20-8.95-20-20C105,285.95,113.95,277,125,277"
		/>
	<path class="st0" d="M125,364c11.05,0,20,8.95,20,20c0,11.05-8.95,20-20,20c-11.05,0-20-8.95-20-20C105,372.95,113.95,364,125,364"
		/>
	<path class="st0" d="M212,364c11.05,0,20,8.95,20,20c0,11.05-8.95,20-20,20c-11.05,0-20-8.95-20-20C192,372.95,200.95,364,212,364"
		/>
	<path class="st0" d="M212,190c11.05,0,20,8.95,20,20c0,11.05-8.95,20-20,20c-11.05,0-20-8.95-20-20C192,198.95,200.95,190,212,190"
		/>
</g>
</svg>
