<?xml version="1.0" encoding="utf-8"?>
<!-- Generator: Adobe Illustrator 23.1.0, SVG Export Plug-In . SVG Version: 6.00 Build 0)  -->
<svg version="1.1" id="Слой_1" xmlns="http://www.w3.org/2000/svg" xmlns:xlink="http://www.w3.org/1999/xlink" x="0px" y="0px"
	 viewBox="0 0 279.5 125.63" style="enable-background:new 0 0 279.5 125.63;" xml:space="preserve">
<style type="text/css">
	.st0{clip-path:url(#SVGID_2_);fill:#3D3D3D;}
	.st1{clip-path:url(#SVGID_4_);fill:url(#SVGID_5_);}
	.st2{clip-path:url(#SVGID_7_);fill:url(#SVGID_8_);}
	.st3{clip-path:url(#SVGID_10_);fill:url(#SVGID_11_);}
	.st4{clip-path:url(#SVGID_13_);fill:url(#SVGID_14_);}
	.st5{clip-path:url(#SVGID_16_);fill:url(#SVGID_17_);}
	.st6{clip-path:url(#SVGID_19_);fill:url(#SVGID_20_);}
	.st7{clip-path:url(#SVGID_22_);fill:url(#SVGID_23_);}
	.st8{clip-path:url(#SVGID_25_);fill:url(#SVGID_26_);}
	.st9{clip-path:url(#SVGID_28_);fill:url(#SVGID_29_);}
	.st10{clip-path:url(#SVGID_31_);fill:url(#SVGID_32_);}
	.st11{clip-path:url(#SVGID_34_);fill:url(#SVGID_35_);}
	.st12{clip-path:url(#SVGID_37_);fill:url(#SVGID_38_);}
	.st13{clip-path:url(#SVGID_40_);fill:url(#SVGID_41_);}
	.st14{clip-path:url(#SVGID_43_);fill:url(#SVGID_44_);}
	.st15{clip-path:url(#SVGID_46_);fill:url(#SVGID_47_);}
	.st16{clip-path:url(#SVGID_49_);fill:url(#SVGID_50_);}
	.st17{clip-path:url(#SVGID_52_);fill:url(#SVGID_53_);}
	.st18{clip-path:url(#SVGID_55_);fill:url(#SVGID_56_);}
	.st19{clip-path:url(#SVGID_58_);fill:url(#SVGID_59_);}
	.st20{clip-path:url(#SVGID_61_);fill:url(#SVGID_62_);}
	.st21{clip-path:url(#SVGID_64_);fill:url(#SVGID_65_);}
	.st22{clip-path:url(#SVGID_67_);fill:url(#SVGID_68_);}
	.st23{clip-path:url(#SVGID_70_);fill:url(#SVGID_71_);}
	.st24{clip-path:url(#SVGID_73_);fill:url(#SVGID_74_);}
	.st25{clip-path:url(#SVGID_76_);fill:url(#SVGID_77_);}
	.st26{clip-path:url(#SVGID_79_);fill:url(#SVGID_80_);}
	.st27{clip-path:url(#SVGID_82_);fill:url(#SVGID_83_);}
	.st28{clip-path:url(#SVGID_85_);fill:url(#SVGID_86_);}
	.st29{clip-path:url(#SVGID_88_);fill:url(#SVGID_89_);}
	.st30{clip-path:url(#SVGID_91_);fill:url(#SVGID_92_);}
	.st31{clip-path:url(#SVGID_94_);fill:url(#SVGID_95_);}
	.st32{clip-path:url(#SVGID_97_);fill:url(#SVGID_98_);}
	.st33{clip-path:url(#SVGID_100_);fill:url(#SVGID_101_);}
	.st34{clip-path:url(#SVGID_103_);fill:url(#SVGID_104_);}
	.st35{clip-path:url(#SVGID_106_);fill:url(#SVGID_107_);}
	.st36{clip-path:url(#SVGID_109_);fill:url(#SVGID_110_);}
	.st37{clip-path:url(#SVGID_112_);fill:url(#SVGID_113_);}
	.st38{clip-path:url(#SVGID_115_);fill:url(#SVGID_116_);}
	.st39{clip-path:url(#SVGID_118_);fill:url(#SVGID_119_);}
	.st40{clip-path:url(#SVGID_121_);fill:url(#SVGID_122_);}
	.st41{clip-path:url(#SVGID_124_);fill:url(#SVGID_125_);}
	.st42{clip-path:url(#SVGID_127_);fill:url(#SVGID_128_);}
	.st43{clip-path:url(#SVGID_130_);fill:url(#SVGID_131_);}
	.st44{clip-path:url(#SVGID_133_);fill:url(#SVGID_134_);}
	.st45{clip-path:url(#SVGID_136_);fill:url(#SVGID_137_);}
	.st46{clip-path:url(#SVGID_139_);fill:url(#SVGID_140_);}
	.st47{clip-path:url(#SVGID_142_);fill:url(#SVGID_143_);}
	.st48{clip-path:url(#SVGID_145_);fill:url(#SVGID_146_);}
	.st49{clip-path:url(#SVGID_148_);fill:url(#SVGID_149_);}
	.st50{clip-path:url(#SVGID_151_);fill:#3D3D3D;}
</style>
<g>
	<defs>
		<rect id="SVGID_1_" y="0" width="279.5" height="125.63"/>
	</defs>
	<clipPath id="SVGID_2_">
		<use xlink:href="#SVGID_1_"  style="overflow:visible;"/>
	</clipPath>
	<path class="st0" d="M28.63,33.17c0,0-4.02,4.47-6.67,6.64c-2.76,2.26-5.26,5.13-9.05,5.31c-2,0.1-3.44-0.4-3.5,0.15
		c-0.06,0.55,1.92,1.51,1.92,1.51s-4.02,2.52-3.6,2.88c0.42,0.36,2.94-0.96,4.32-1.44c1.38-0.48,2.46-0.48,2.7-0.18
		c0.24,0.3,0.68,1.01-0.17,1.49c-0.85,0.48-2.55,0.19-2.22,0.66c0.86,1.22,4.42,1.47,5.24,1.29c-0.33,0.2-2.92,1.71-2.31,2.15
		c0.66,0.48,2.58-0.96,5.77-2.88c5.33-3.22,9.62-7.8,13.7-12.43L28.63,33.17z M22.49,46.92c-1.16,0.87-2.83,1.53-3.96,0.48
		c-1.88-1.74,8.36-6.93,9.43-7.48c-1.44,2.14-2.89,4.28-4.61,6.21C23.13,46.39,22.84,46.67,22.49,46.92"/>
	<path class="st0" d="M62.85,64.4c-4.44-4.22-8.96-8.36-13.51-12.47c1.24-3.63,2.52-7.24,3.76-10.87c1.13-3.31,2.75-6.95,2.7-10.52
		c-0.05-3.53-2.98-6.78-5.1-9.33c-1.18-1.42-2.6-2.7-3.4-4.38c-0.82-1.71-0.93-3.78-0.94-5.6c-0.01-1.69,2.62-2.71,2.62-4.01
		c0-1.31-2.62-2.9-2.62-2.9l-0.75-1.68L43.9,2.48c-1.48-1.05-3.56-2.4-5.44-2.47c-3.17-0.12-5.27,1.71-7.03,4.13
		c-1.49,2.05-3.17,5.6-3.17,5.6s1.87,0,1.68,0.93c-0.19,0.93,0,2.99-1.12,6.16c-1.12,3.17-3.08,5.51-2.8,6.16
		c0.28,0.65,2.99-1.12,2.99-0.19c0,0.93-0.19,1.68-0.75,4.67c-0.56,2.99-3.17,5.23-2.99,5.79c0.19,0.56,1.31-0.37,2.05-0.19
		c0.75,0.19,0.37,2.61,1.68,4.11c1.31,1.49,4.3,2.24,4.3,2.24s0.47,2.43,1.12,2.24c0.65-0.19,2.33-3.92,2.8-5.04
		c0.47-1.12,2.05-7.1,2.61-6.91c0.56,0.19,2.05,2.43,2.05,3.73s0.56,2.61-1.12,7.1c-0.98,2.61-3.05,4.68-4.63,6.98
		c-2.05,2.99-2.06,5.63-2,9.15c0.06,3.2,0.37,6.51,0.03,9.7c-0.35,3.3-0.7,6.6-0.85,9.92c-0.09,1.97,0.3,5.22-0.65,7.01
		c-1.04,1.96-1.76,4.98-3.49,6.47c-0.93,0.81-1.49,3.24-1.49,3.24s1,0,1.24,0.75c0.25,0.75,0.19,14.81,0.5,16.18
		c0.31,1.37-1.74,3.73-1.74,4.98c0,1.24,3.05,1.87,2.74,3.98c-0.31,2.12-2.21,6.66-1.49,6.72c0.72,0.06,3.61-1.49,4.73-4.73
		c1.12-3.24,1.24-6.22,1.24-6.22c-0.91-4.56-1.22-9.25-0.36-13.84c0.62-3.3,1.62-6.53,2.35-9.81c0,0,2.8-1,5.48-3.24
		c3.09-2.59,5.92-5.34,9.59-7.11c2.93-1.42,5.88-2.8,8.75-4.34c1.5-0.81,2.98-1.65,4.42-2.56c1.08-0.68,2.39-1.51,2.5-2.92
		C67.87,68.05,64.6,66.06,62.85,64.4 M49.72,72.47c-3.73,2.8-9.15,9.33-9.15,9.33s2.43-5.41,3.73-10.08s0.75-7.28,0.75-7.28
		s2.05,0.75,4.48,1.68c2.43,0.93,7.28,3.55,7.28,3.55S53.46,69.67,49.72,72.47"/>
</g>
<g>
	<defs>
		<path id="SVGID_3_" d="M64.18,21.74c-0.22,0.33-0.16,0.68,0.05,1c0.02,0.04,0.04,0.08,0.07,0.11c0.24,0.21,0.42,0.56,0.82,0.45
			c0.25-0.06,0.46-0.52,0.45-0.91c-0.01-0.4-0.22-0.65-0.67-0.82c-0.11-0.04-0.21-0.06-0.31-0.06
			C64.43,21.52,64.28,21.58,64.18,21.74"/>
	</defs>
	<clipPath id="SVGID_4_">
		<use xlink:href="#SVGID_3_"  style="overflow:visible;"/>
	</clipPath>
	
		<linearGradient id="SVGID_5_" gradientUnits="userSpaceOnUse" x1="0" y1="125.6257" x2="1" y2="125.6257" gradientTransform="matrix(69.2026 -60.1919 -60.1919 -69.2026 7562.4595 8771.7236)">
		<stop  offset="0" style="stop-color:#EEC65F"/>
		<stop  offset="0.23" style="stop-color:#A76F2A"/>
		<stop  offset="0.33" style="stop-color:#E2B755"/>
		<stop  offset="0.58" style="stop-color:#E2B755"/>
		<stop  offset="0.69" style="stop-color:#8F5D21"/>
		<stop  offset="1" style="stop-color:#E2B755"/>
	</linearGradient>
	<polygon class="st1" points="63.02,22.34 64.88,20.72 66.51,22.6 64.65,24.22 	"/>
</g>
<g>
	<defs>
		<path id="SVGID_6_" d="M82.21,75.22c-0.02,0.56,0.3,0.99,0.74,1.01c0.34,0.02,0.71-0.4,0.73-0.81c0.02-0.49-0.26-0.74-0.86-0.77
			c-0.03,0-0.06,0-0.08,0C82.35,74.65,82.22,74.79,82.21,75.22"/>
	</defs>
	<clipPath id="SVGID_7_">
		<use xlink:href="#SVGID_6_"  style="overflow:visible;"/>
	</clipPath>
	
		<linearGradient id="SVGID_8_" gradientUnits="userSpaceOnUse" x1="0" y1="125.6251" x2="1" y2="125.6251" gradientTransform="matrix(69.2027 -60.192 -60.192 -69.2027 7596.5 8810.8613)">
		<stop  offset="0" style="stop-color:#EEC65F"/>
		<stop  offset="0.23" style="stop-color:#A76F2A"/>
		<stop  offset="0.33" style="stop-color:#E2B755"/>
		<stop  offset="0.58" style="stop-color:#E2B755"/>
		<stop  offset="0.69" style="stop-color:#8F5D21"/>
		<stop  offset="1" style="stop-color:#E2B755"/>
	</linearGradient>
	<polygon class="st2" points="81.4,75.34 83.05,73.91 84.49,75.56 82.84,76.99 	"/>
</g>
<g>
	<defs>
		<path id="SVGID_9_" d="M19.46,25.77c0.01,0.41,0.32,0.66,0.76,0.64c0.39-0.02,0.72-0.41,0.7-0.84c-0.02-0.41-0.38-0.77-0.77-0.77
			c0,0,0,0-0.01,0C19.73,24.81,19.45,25.2,19.46,25.77"/>
	</defs>
	<clipPath id="SVGID_10_">
		<use xlink:href="#SVGID_9_"  style="overflow:visible;"/>
	</clipPath>
	
		<linearGradient id="SVGID_11_" gradientUnits="userSpaceOnUse" x1="0" y1="125.6258" x2="1" y2="125.6258" gradientTransform="matrix(69.2019 -60.1913 -60.1913 -69.2019 7544.752 8751.3652)">
		<stop  offset="0" style="stop-color:#EEC65F"/>
		<stop  offset="0.23" style="stop-color:#A76F2A"/>
		<stop  offset="0.33" style="stop-color:#E2B755"/>
		<stop  offset="0.58" style="stop-color:#E2B755"/>
		<stop  offset="0.69" style="stop-color:#8F5D21"/>
		<stop  offset="1" style="stop-color:#E2B755"/>
	</linearGradient>
	<polygon class="st3" points="18.64,25.51 20.3,24.07 21.75,25.73 20.09,27.17 	"/>
</g>
<g>
	<defs>
		<path id="SVGID_12_" d="M64.88,96.96c-0.04,0.46,0.35,0.86,0.87,0.89c0.32,0.02,0.55-0.18,0.58-0.5c0.04-0.43-0.39-0.95-0.81-0.99
			c-0.02,0-0.04,0-0.05,0C65.14,96.36,64.91,96.59,64.88,96.96"/>
	</defs>
	<clipPath id="SVGID_13_">
		<use xlink:href="#SVGID_12_"  style="overflow:visible;"/>
	</clipPath>
	
		<linearGradient id="SVGID_14_" gradientUnits="userSpaceOnUse" x1="0" y1="125.626" x2="1" y2="125.626" gradientTransform="matrix(69.2027 -60.192 -60.192 -69.2027 7599.8223 8814.6797)">
		<stop  offset="0" style="stop-color:#EEC65F"/>
		<stop  offset="0.23" style="stop-color:#A76F2A"/>
		<stop  offset="0.33" style="stop-color:#E2B755"/>
		<stop  offset="0.58" style="stop-color:#E2B755"/>
		<stop  offset="0.69" style="stop-color:#8F5D21"/>
		<stop  offset="1" style="stop-color:#E2B755"/>
	</linearGradient>
	<polygon class="st4" points="64.1,97.01 65.72,95.6 67.12,97.22 65.51,98.63 	"/>
</g>
<g>
	<defs>
		<path id="SVGID_15_" d="M6.43,40.25c-0.01,0.42,0.36,0.89,0.71,0.9c0.33,0.01,0.63-0.36,0.64-0.79c0.01-0.48-0.16-0.69-0.58-0.71
			c-0.02,0-0.04,0-0.06,0C6.68,39.64,6.45,39.85,6.43,40.25"/>
	</defs>
	<clipPath id="SVGID_16_">
		<use xlink:href="#SVGID_15_"  style="overflow:visible;"/>
	</clipPath>
	
		<linearGradient id="SVGID_17_" gradientUnits="userSpaceOnUse" x1="0" y1="125.6257" x2="1" y2="125.6257" gradientTransform="matrix(69.2014 -60.1908 -60.1908 -69.2014 7546.3691 8753.2246)">
		<stop  offset="0" style="stop-color:#EEC65F"/>
		<stop  offset="0.23" style="stop-color:#A76F2A"/>
		<stop  offset="0.33" style="stop-color:#E2B755"/>
		<stop  offset="0.58" style="stop-color:#E2B755"/>
		<stop  offset="0.69" style="stop-color:#8F5D21"/>
		<stop  offset="1" style="stop-color:#E2B755"/>
	</linearGradient>
	<polygon class="st5" points="5.67,40.29 7.2,38.97 8.54,40.5 7.01,41.83 	"/>
</g>
<g>
	<defs>
		<path id="SVGID_18_" d="M82.89,43.43c-0.01,0.46,0.3,0.82,0.7,0.82c0.38,0,0.65-0.31,0.67-0.76c0.01-0.37-0.41-0.77-0.84-0.79
			c-0.01,0-0.01,0-0.02,0C83.14,42.7,82.9,43.04,82.89,43.43"/>
	</defs>
	<clipPath id="SVGID_19_">
		<use xlink:href="#SVGID_18_"  style="overflow:visible;"/>
	</clipPath>
	
		<linearGradient id="SVGID_20_" gradientUnits="userSpaceOnUse" x1="0" y1="125.6258" x2="1" y2="125.6258" gradientTransform="matrix(69.2045 -60.1935 -60.1935 -69.2045 7581.1729 8793.2422)">
		<stop  offset="0" style="stop-color:#EEC65F"/>
		<stop  offset="0.23" style="stop-color:#A76F2A"/>
		<stop  offset="0.33" style="stop-color:#E2B755"/>
		<stop  offset="0.58" style="stop-color:#E2B755"/>
		<stop  offset="0.69" style="stop-color:#8F5D21"/>
		<stop  offset="1" style="stop-color:#E2B755"/>
	</linearGradient>
	<polygon class="st6" points="82.11,43.37 83.67,42.01 85.04,43.59 83.48,44.94 	"/>
</g>
<g>
	<defs>
		<path id="SVGID_21_" d="M15.37,95.04c-0.23,0.14-0.26,0.53-0.11,0.91c0.19,0.48,0.57,0.57,1.05,0.57c0.25-0.52,0.27-0.8,0.1-1.11
			c-0.13-0.24-0.53-0.43-0.82-0.43C15.5,94.99,15.43,95.01,15.37,95.04"/>
	</defs>
	<clipPath id="SVGID_22_">
		<use xlink:href="#SVGID_21_"  style="overflow:visible;"/>
	</clipPath>
	
		<linearGradient id="SVGID_23_" gradientUnits="userSpaceOnUse" x1="0" y1="125.6261" x2="1" y2="125.6261" gradientTransform="matrix(69.2041 -60.1932 -60.1932 -69.2041 7577.874 8789.4453)">
		<stop  offset="0" style="stop-color:#EEC65F"/>
		<stop  offset="0.23" style="stop-color:#A76F2A"/>
		<stop  offset="0.33" style="stop-color:#E2B755"/>
		<stop  offset="0.58" style="stop-color:#E2B755"/>
		<stop  offset="0.69" style="stop-color:#8F5D21"/>
		<stop  offset="1" style="stop-color:#E2B755"/>
	</linearGradient>
	<polygon class="st7" points="14.35,95.65 15.95,94.26 17.34,95.86 15.75,97.25 	"/>
</g>
<g>
	<defs>
		<path id="SVGID_24_" d="M2.61,58.54c-0.44,0.01-0.76,0.3-0.73,0.67c0.03,0.38,0.33,0.66,0.69,0.65c0.38-0.02,0.69-0.35,0.7-0.74
			c0-0.34-0.25-0.57-0.62-0.57C2.63,58.54,2.62,58.54,2.61,58.54"/>
	</defs>
	<clipPath id="SVGID_25_">
		<use xlink:href="#SVGID_24_"  style="overflow:visible;"/>
	</clipPath>
	
		<linearGradient id="SVGID_26_" gradientUnits="userSpaceOnUse" x1="0" y1="125.6259" x2="1" y2="125.6259" gradientTransform="matrix(69.2007 -60.1902 -60.1902 -69.2007 7553.6611 8761.6074)">
		<stop  offset="0" style="stop-color:#EEC65F"/>
		<stop  offset="0.23" style="stop-color:#A76F2A"/>
		<stop  offset="0.33" style="stop-color:#E2B755"/>
		<stop  offset="0.58" style="stop-color:#E2B755"/>
		<stop  offset="0.69" style="stop-color:#8F5D21"/>
		<stop  offset="1" style="stop-color:#E2B755"/>
	</linearGradient>
	<polygon class="st8" points="1.19,59.11 2.66,57.84 3.93,59.3 2.46,60.57 	"/>
</g>
<g>
	<defs>
		<path id="SVGID_27_" d="M2.73,74.05c-0.2,0.16-0.25,0.7-0.07,0.98c0.08,0.13,0.2,0.23,0.32,0.37c0.3-0.19,0.54-0.33,0.76-0.5
			c0.29-0.23,0.28-0.54-0.01-0.77c-0.13-0.1-0.39-0.16-0.63-0.16C2.94,73.96,2.8,73.99,2.73,74.05"/>
	</defs>
	<clipPath id="SVGID_28_">
		<use xlink:href="#SVGID_27_"  style="overflow:visible;"/>
	</clipPath>
	
		<linearGradient id="SVGID_29_" gradientUnits="userSpaceOnUse" x1="0" y1="125.6241" x2="1" y2="125.6241" gradientTransform="matrix(69.2026 -60.1919 -60.1919 -69.2026 7561.7319 8770.8867)">
		<stop  offset="0" style="stop-color:#EEC65F"/>
		<stop  offset="0.23" style="stop-color:#A76F2A"/>
		<stop  offset="0.33" style="stop-color:#E2B755"/>
		<stop  offset="0.58" style="stop-color:#E2B755"/>
		<stop  offset="0.69" style="stop-color:#8F5D21"/>
		<stop  offset="1" style="stop-color:#E2B755"/>
	</linearGradient>
	<polygon class="st9" points="1.77,74.58 3.36,73.19 4.75,74.78 3.15,76.17 	"/>
</g>
<g>
	<defs>
		<path id="SVGID_30_" d="M80.38,33.52c-0.04,0.37,0.24,0.75,0.57,0.78c0.3,0.02,0.59-0.29,0.63-0.66c0.03-0.4-0.21-0.68-0.62-0.71
			c-0.01,0-0.03,0-0.04,0C80.62,32.92,80.42,33.14,80.38,33.52"/>
	</defs>
	<clipPath id="SVGID_31_">
		<use xlink:href="#SVGID_30_"  style="overflow:visible;"/>
	</clipPath>
	
		<linearGradient id="SVGID_32_" gradientUnits="userSpaceOnUse" x1="0" y1="125.6257" x2="1" y2="125.6257" gradientTransform="matrix(69.1997 -60.1894 -60.1894 -69.1997 7574.6436 8785.7266)">
		<stop  offset="0" style="stop-color:#EEC65F"/>
		<stop  offset="0.23" style="stop-color:#A76F2A"/>
		<stop  offset="0.33" style="stop-color:#E2B755"/>
		<stop  offset="0.58" style="stop-color:#E2B755"/>
		<stop  offset="0.69" style="stop-color:#8F5D21"/>
		<stop  offset="1" style="stop-color:#E2B755"/>
	</linearGradient>
	<polygon class="st10" points="79.65,33.52 81.06,32.29 82.3,33.71 80.89,34.94 	"/>
</g>
<g>
	<defs>
		<path id="SVGID_33_" d="M10.69,83.23c-0.3,0.02-0.45,0.26-0.43,0.7c0.02,0.43,0.28,0.72,0.63,0.71c0.37-0.01,0.58-0.26,0.57-0.67
			c-0.01-0.41-0.34-0.74-0.73-0.74C10.72,83.23,10.7,83.23,10.69,83.23"/>
	</defs>
	<clipPath id="SVGID_34_">
		<use xlink:href="#SVGID_33_"  style="overflow:visible;"/>
	</clipPath>
	
		<linearGradient id="SVGID_35_" gradientUnits="userSpaceOnUse" x1="0" y1="125.6258" x2="1" y2="125.6258" gradientTransform="matrix(69.2028 -60.1921 -60.1921 -69.2028 7569.7007 8780.0488)">
		<stop  offset="0" style="stop-color:#EEC65F"/>
		<stop  offset="0.23" style="stop-color:#A76F2A"/>
		<stop  offset="0.33" style="stop-color:#E2B755"/>
		<stop  offset="0.58" style="stop-color:#E2B755"/>
		<stop  offset="0.69" style="stop-color:#8F5D21"/>
		<stop  offset="1" style="stop-color:#E2B755"/>
	</linearGradient>
	<polygon class="st11" points="9.54,83.84 10.94,82.62 12.17,84.03 10.77,85.26 	"/>
</g>
<g>
	<defs>
		<path id="SVGID_36_" d="M46.77,98.85c-0.32,0-0.69,0.4-0.67,0.7c0.03,0.31,0.32,0.56,0.64,0.55c0.28-0.01,0.58-0.33,0.59-0.62
			C47.33,99.17,47.05,98.85,46.77,98.85C46.77,98.85,46.77,98.85,46.77,98.85"/>
	</defs>
	<clipPath id="SVGID_37_">
		<use xlink:href="#SVGID_36_"  style="overflow:visible;"/>
	</clipPath>
	
		<linearGradient id="SVGID_38_" gradientUnits="userSpaceOnUse" x1="0" y1="125.6262" x2="1" y2="125.6262" gradientTransform="matrix(69.2029 -60.1921 -60.1921 -69.2029 7592.8735 8806.6914)">
		<stop  offset="0" style="stop-color:#EEC65F"/>
		<stop  offset="0.23" style="stop-color:#A76F2A"/>
		<stop  offset="0.33" style="stop-color:#E2B755"/>
		<stop  offset="0.58" style="stop-color:#E2B755"/>
		<stop  offset="0.69" style="stop-color:#8F5D21"/>
		<stop  offset="1" style="stop-color:#E2B755"/>
	</linearGradient>
	<polygon class="st12" points="45.45,99.39 46.79,98.23 47.96,99.57 46.62,100.73 	"/>
</g>
<g>
	<defs>
		<path id="SVGID_39_" d="M8.63,26.41c0.07,0.39,0.24,0.67,0.59,0.66c0.21,0,0.45-0.15,0.61-0.3c0.22-0.21,0.14-0.45-0.15-0.56
			c-0.14-0.05-0.27-0.08-0.4-0.08C9.05,26.13,8.83,26.21,8.63,26.41"/>
	</defs>
	<clipPath id="SVGID_40_">
		<use xlink:href="#SVGID_39_"  style="overflow:visible;"/>
	</clipPath>
	
		<linearGradient id="SVGID_41_" gradientUnits="userSpaceOnUse" x1="0" y1="125.6251" x2="1" y2="125.6251" gradientTransform="matrix(69.2016 -60.191 -60.191 -69.2016 7540.4878 8746.4619)">
		<stop  offset="0" style="stop-color:#EEC65F"/>
		<stop  offset="0.23" style="stop-color:#A76F2A"/>
		<stop  offset="0.33" style="stop-color:#E2B755"/>
		<stop  offset="0.58" style="stop-color:#E2B755"/>
		<stop  offset="0.69" style="stop-color:#8F5D21"/>
		<stop  offset="1" style="stop-color:#E2B755"/>
	</linearGradient>
	<polygon class="st13" points="8.16,26.54 9.43,25.43 10.51,26.67 9.24,27.78 	"/>
</g>
<g>
	<defs>
		<path id="SVGID_42_" d="M57.17,27.3c0.91,0.76,0.68,1.83,0.94,2.76c0.5-0.11,0.4-0.49,0.38-0.79c-0.02-0.31-0.09-0.61-0.14-0.95
			c0.79,0.61,1.17,2.23,0.84,3.44C57.84,31.3,56.66,28.81,57.17,27.3 M57.16,26.49c-0.24,0.14-0.54,0.24-0.54,0.61
			c0,0.31-0.02,0.62-0.03,0.93c-0.05,0.87,0.15,1.7,0.67,2.39c0.59,0.78,1.24,1.5,1.88,2.24c0.05,0.06,0.15,0.07,0.29,0.12
			c0.29-0.89,0.5-1.75,0.35-2.68c-0.22-1.42-1.09-2.45-2.03-3.44c-0.11-0.12-0.24-0.23-0.4-0.23
			C57.29,26.44,57.22,26.45,57.16,26.49"/>
	</defs>
	<clipPath id="SVGID_43_">
		<use xlink:href="#SVGID_42_"  style="overflow:visible;"/>
	</clipPath>
	
		<linearGradient id="SVGID_44_" gradientUnits="userSpaceOnUse" x1="0" y1="125.6263" x2="1" y2="125.6263" gradientTransform="matrix(69.2029 -60.1921 -60.1921 -69.2029 7563.2432 8772.625)">
		<stop  offset="0" style="stop-color:#EEC65F"/>
		<stop  offset="0.23" style="stop-color:#A76F2A"/>
		<stop  offset="0.33" style="stop-color:#E2B755"/>
		<stop  offset="0.58" style="stop-color:#E2B755"/>
		<stop  offset="0.69" style="stop-color:#8F5D21"/>
		<stop  offset="1" style="stop-color:#E2B755"/>
	</linearGradient>
	<polygon class="st14" points="53.39,29.17 58.46,24.76 63.06,30.05 57.99,34.46 	"/>
</g>
<g>
	<defs>
		<path id="SVGID_45_" d="M50.72,91.1c-0.08,0.49,0.31,1.02,0.77,1.07c0.37,0.03,0.67-0.38,0.66-0.9c-0.01-0.53-0.22-0.83-0.63-0.87
			c-0.03,0-0.05,0-0.08,0C51.08,90.39,50.79,90.67,50.72,91.1"/>
	</defs>
	<clipPath id="SVGID_46_">
		<use xlink:href="#SVGID_45_"  style="overflow:visible;"/>
	</clipPath>
	
		<linearGradient id="SVGID_47_" gradientUnits="userSpaceOnUse" x1="0" y1="125.6262" x2="1" y2="125.6262" gradientTransform="matrix(69.2025 -60.1918 -60.1918 -69.2025 7590.8013 8804.3076)">
		<stop  offset="0" style="stop-color:#EEC65F"/>
		<stop  offset="0.23" style="stop-color:#A76F2A"/>
		<stop  offset="0.33" style="stop-color:#E2B755"/>
		<stop  offset="0.58" style="stop-color:#E2B755"/>
		<stop  offset="0.69" style="stop-color:#8F5D21"/>
		<stop  offset="1" style="stop-color:#E2B755"/>
	</linearGradient>
	<polygon class="st15" points="49.75,91.17 51.51,89.64 53.06,91.42 51.3,92.95 	"/>
</g>
<g>
	<defs>
		<path id="SVGID_48_" d="M74.96,58.51c-0.47,0-0.77,0.32-0.76,0.8c0.01,0.44,0.33,0.75,0.76,0.73c0.43-0.02,0.76-0.43,0.72-0.93
			c-0.02-0.37-0.28-0.59-0.71-0.59C74.96,58.51,74.96,58.51,74.96,58.51"/>
	</defs>
	<clipPath id="SVGID_49_">
		<use xlink:href="#SVGID_48_"  style="overflow:visible;"/>
	</clipPath>
	
		<linearGradient id="SVGID_50_" gradientUnits="userSpaceOnUse" x1="0" y1="125.6257" x2="1" y2="125.6257" gradientTransform="matrix(69.2036 -60.1928 -60.1928 -69.2036 7585.1826 8797.8496)">
		<stop  offset="0" style="stop-color:#EEC65F"/>
		<stop  offset="0.23" style="stop-color:#A76F2A"/>
		<stop  offset="0.33" style="stop-color:#E2B755"/>
		<stop  offset="0.58" style="stop-color:#E2B755"/>
		<stop  offset="0.69" style="stop-color:#8F5D21"/>
		<stop  offset="1" style="stop-color:#E2B755"/>
	</linearGradient>
	<polygon class="st16" points="73.42,59.17 75.05,57.75 76.48,59.39 74.84,60.81 	"/>
</g>
<g>
	<defs>
		<path id="SVGID_51_" d="M27.91,86.91c-0.02,0.36,0.44,0.83,0.82,0.84c0.39,0.01,0.72-0.32,0.7-0.72c-0.01-0.4-0.33-0.7-0.73-0.7
			C28.34,86.32,27.92,86.64,27.91,86.91"/>
	</defs>
	<clipPath id="SVGID_52_">
		<use xlink:href="#SVGID_51_"  style="overflow:visible;"/>
	</clipPath>
	
		<linearGradient id="SVGID_53_" gradientUnits="userSpaceOnUse" x1="0" y1="125.6262" x2="1" y2="125.6262" gradientTransform="matrix(69.2034 -60.1926 -60.1926 -69.2034 7579.0015 8790.7432)">
		<stop  offset="0" style="stop-color:#EEC65F"/>
		<stop  offset="0.23" style="stop-color:#A76F2A"/>
		<stop  offset="0.33" style="stop-color:#E2B755"/>
		<stop  offset="0.58" style="stop-color:#E2B755"/>
		<stop  offset="0.69" style="stop-color:#8F5D21"/>
		<stop  offset="1" style="stop-color:#E2B755"/>
	</linearGradient>
	<polygon class="st17" points="27.17,86.94 28.77,85.55 30.15,87.14 28.56,88.53 	"/>
</g>
<g>
	<defs>
		<path id="SVGID_54_" d="M64.98,81.44c0.01,0.35,0.25,0.63,0.59,0.83c0.26,0.15,0.62,0.06,0.78-0.16c0.17-0.24,0.15-0.57-0.08-0.79
			c-0.18-0.16-0.38-0.31-0.6-0.42c-0.11-0.05-0.21-0.08-0.3-0.08C65.12,80.82,64.98,81.03,64.98,81.44"/>
	</defs>
	<clipPath id="SVGID_55_">
		<use xlink:href="#SVGID_54_"  style="overflow:visible;"/>
	</clipPath>
	
		<linearGradient id="SVGID_56_" gradientUnits="userSpaceOnUse" x1="0" y1="125.6251" x2="1" y2="125.6251" gradientTransform="matrix(69.2026 -60.1919 -60.1919 -69.2026 7592.1382 8805.8447)">
		<stop  offset="0" style="stop-color:#EEC65F"/>
		<stop  offset="0.23" style="stop-color:#A76F2A"/>
		<stop  offset="0.33" style="stop-color:#E2B755"/>
		<stop  offset="0.58" style="stop-color:#E2B755"/>
		<stop  offset="0.69" style="stop-color:#8F5D21"/>
		<stop  offset="1" style="stop-color:#E2B755"/>
	</linearGradient>
	<polygon class="st18" points="64.18,81.51 65.85,80.06 67.31,81.73 65.64,83.18 	"/>
</g>
<g>
	<defs>
		<path id="SVGID_57_" d="M12.34,59.5c-0.2,0.06-0.43,0.22-0.54,0.4c-0.14,0.21,0.12,0.86,0.32,1.01c0.29,0.2,0.5,0.16,0.63-0.16
			c0.1-0.24,0.14-0.5,0.17-0.64c-0.01-0.44-0.13-0.64-0.39-0.64C12.47,59.47,12.41,59.48,12.34,59.5"/>
	</defs>
	<clipPath id="SVGID_58_">
		<use xlink:href="#SVGID_57_"  style="overflow:visible;"/>
	</clipPath>
	
		<linearGradient id="SVGID_59_" gradientUnits="userSpaceOnUse" x1="0" y1="125.6264" x2="1" y2="125.6264" gradientTransform="matrix(69.2016 -60.191 -60.191 -69.2016 7558.5142 8767.1875)">
		<stop  offset="0" style="stop-color:#EEC65F"/>
		<stop  offset="0.23" style="stop-color:#A76F2A"/>
		<stop  offset="0.33" style="stop-color:#E2B755"/>
		<stop  offset="0.58" style="stop-color:#E2B755"/>
		<stop  offset="0.69" style="stop-color:#8F5D21"/>
		<stop  offset="1" style="stop-color:#E2B755"/>
	</linearGradient>
	<polygon class="st19" points="10.84,60.17 12.37,58.84 13.73,60.4 12.2,61.73 	"/>
</g>
<g>
	<defs>
		<path id="SVGID_60_" d="M66.13,38.43c-0.38,0.02-0.66,0.31-0.66,0.68c0.01,0.37,0.32,0.68,0.67,0.67
			c0.33-0.01,0.68-0.42,0.67-0.78c0-0.3-0.33-0.57-0.66-0.57C66.14,38.43,66.14,38.43,66.13,38.43"/>
	</defs>
	<clipPath id="SVGID_61_">
		<use xlink:href="#SVGID_60_"  style="overflow:visible;"/>
	</clipPath>
	
		<linearGradient id="SVGID_62_" gradientUnits="userSpaceOnUse" x1="0" y1="125.6257" x2="1" y2="125.6257" gradientTransform="matrix(69.2013 -60.1908 -60.1908 -69.2013 7571.1523 8781.7158)">
		<stop  offset="0" style="stop-color:#EEC65F"/>
		<stop  offset="0.23" style="stop-color:#A76F2A"/>
		<stop  offset="0.33" style="stop-color:#E2B755"/>
		<stop  offset="0.58" style="stop-color:#E2B755"/>
		<stop  offset="0.69" style="stop-color:#8F5D21"/>
		<stop  offset="1" style="stop-color:#E2B755"/>
	</linearGradient>
	<polygon class="st20" points="64.79,39.02 66.24,37.76 67.49,39.21 66.05,40.46 	"/>
</g>
<g>
	<defs>
		<path id="SVGID_63_" d="M75.93,68.56c-0.01,0.3,0.28,0.61,0.58,0.62c0.38,0.01,0.74-0.32,0.75-0.7c0.01-0.3-0.24-0.53-0.63-0.56
			c-0.01,0-0.03,0-0.04,0C76.24,67.93,75.94,68.21,75.93,68.56"/>
	</defs>
	<clipPath id="SVGID_64_">
		<use xlink:href="#SVGID_63_"  style="overflow:visible;"/>
	</clipPath>
	
		<linearGradient id="SVGID_65_" gradientUnits="userSpaceOnUse" x1="0" y1="125.6258" x2="1" y2="125.6258" gradientTransform="matrix(69.2035 -60.1927 -60.1927 -69.2035 7590.4775 8803.9375)">
		<stop  offset="0" style="stop-color:#EEC65F"/>
		<stop  offset="0.23" style="stop-color:#A76F2A"/>
		<stop  offset="0.33" style="stop-color:#E2B755"/>
		<stop  offset="0.58" style="stop-color:#E2B755"/>
		<stop  offset="0.69" style="stop-color:#8F5D21"/>
		<stop  offset="1" style="stop-color:#E2B755"/>
	</linearGradient>
	<polygon class="st21" points="75.29,68.47 76.69,67.25 77.9,68.65 76.5,69.87 	"/>
</g>
<g>
	<defs>
		<path id="SVGID_66_" d="M15.4,72.15c0,0.42,0.2,0.75,0.48,0.77c0.3,0.02,0.61-0.31,0.63-0.65c0.01-0.39-0.25-0.64-0.67-0.65
			c-0.01,0-0.01,0-0.02,0C15.54,71.62,15.41,71.79,15.4,72.15"/>
	</defs>
	<clipPath id="SVGID_67_">
		<use xlink:href="#SVGID_66_"  style="overflow:visible;"/>
	</clipPath>
	
		<linearGradient id="SVGID_68_" gradientUnits="userSpaceOnUse" x1="0" y1="125.6253" x2="1" y2="125.6253" gradientTransform="matrix(69.2027 -60.192 -60.192 -69.2027 7566.0894 8775.8975)">
		<stop  offset="0" style="stop-color:#EEC65F"/>
		<stop  offset="0.23" style="stop-color:#A76F2A"/>
		<stop  offset="0.33" style="stop-color:#E2B755"/>
		<stop  offset="0.58" style="stop-color:#E2B755"/>
		<stop  offset="0.69" style="stop-color:#8F5D21"/>
		<stop  offset="1" style="stop-color:#E2B755"/>
	</linearGradient>
	<polygon class="st22" points="14.75,72.19 16.04,71.06 17.18,72.37 15.88,73.49 	"/>
</g>
<g>
	<defs>
		<path id="SVGID_69_" d="M68.23,50.66c-0.29,0-0.53,0.2-0.54,0.48c-0.01,0.3,0.22,0.51,0.56,0.52c0.32,0.01,0.54-0.18,0.54-0.46
			C68.79,50.92,68.53,50.66,68.23,50.66C68.24,50.66,68.24,50.66,68.23,50.66"/>
	</defs>
	<clipPath id="SVGID_70_">
		<use xlink:href="#SVGID_69_"  style="overflow:visible;"/>
	</clipPath>
	
		<linearGradient id="SVGID_71_" gradientUnits="userSpaceOnUse" x1="0" y1="125.6261" x2="1" y2="125.6261" gradientTransform="matrix(69.1999 -60.1895 -60.1895 -69.1999 7577.895 8789.4658)">
		<stop  offset="0" style="stop-color:#EEC65F"/>
		<stop  offset="0.23" style="stop-color:#A76F2A"/>
		<stop  offset="0.33" style="stop-color:#E2B755"/>
		<stop  offset="0.58" style="stop-color:#E2B755"/>
		<stop  offset="0.69" style="stop-color:#8F5D21"/>
		<stop  offset="1" style="stop-color:#E2B755"/>
	</linearGradient>
	<polygon class="st23" points="67.18,51.09 68.32,50.11 69.3,51.23 68.16,52.22 	"/>
</g>
<g>
	<defs>
		<path id="SVGID_72_" d="M56.83,21.88c0.01,0.33,0.32,0.63,0.64,0.62c0.27-0.01,0.47-0.15,0.51-0.42c0.05-0.31-0.28-0.67-0.58-0.68
			c-0.01,0-0.02,0-0.03,0C57.06,21.39,56.83,21.59,56.83,21.88"/>
	</defs>
	<clipPath id="SVGID_73_">
		<use xlink:href="#SVGID_72_"  style="overflow:visible;"/>
	</clipPath>
	
		<linearGradient id="SVGID_74_" gradientUnits="userSpaceOnUse" x1="0" y1="125.6258" x2="1" y2="125.6258" gradientTransform="matrix(69.2036 -60.1927 -60.1927 -69.2036 7559.1543 8767.9248)">
		<stop  offset="0" style="stop-color:#EEC65F"/>
		<stop  offset="0.23" style="stop-color:#A76F2A"/>
		<stop  offset="0.33" style="stop-color:#E2B755"/>
		<stop  offset="0.58" style="stop-color:#E2B755"/>
		<stop  offset="0.69" style="stop-color:#8F5D21"/>
		<stop  offset="1" style="stop-color:#E2B755"/>
	</linearGradient>
	<polygon class="st24" points="56.28,21.87 57.52,20.79 58.6,22.03 57.35,23.11 	"/>
</g>
<g>
	<defs>
		<path id="SVGID_75_" d="M84.61,58.95c-0.2,0.01-0.49,0.34-0.49,0.56c-0.01,0.23,0.32,0.57,0.55,0.57c0.24,0,0.37-0.19,0.37-0.59
			c0-0.31-0.18-0.54-0.41-0.54C84.63,58.94,84.62,58.94,84.61,58.95"/>
	</defs>
	<clipPath id="SVGID_76_">
		<use xlink:href="#SVGID_75_"  style="overflow:visible;"/>
	</clipPath>
	
		<linearGradient id="SVGID_77_" gradientUnits="userSpaceOnUse" x1="0" y1="125.6265" x2="1" y2="125.6265" gradientTransform="matrix(69.2027 -60.192 -60.192 -69.2027 7589.3965 8802.6934)">
		<stop  offset="0" style="stop-color:#EEC65F"/>
		<stop  offset="0.23" style="stop-color:#A76F2A"/>
		<stop  offset="0.33" style="stop-color:#E2B755"/>
		<stop  offset="0.58" style="stop-color:#E2B755"/>
		<stop  offset="0.69" style="stop-color:#8F5D21"/>
		<stop  offset="1" style="stop-color:#E2B755"/>
	</linearGradient>
	<polygon class="st25" points="83.55,59.43 84.65,58.48 85.61,59.59 84.52,60.54 	"/>
</g>
<g>
	<defs>
		<path id="SVGID_78_" d="M70.6,41.83c-0.07,0.29-0.1,0.62-0.05,0.91c0.03,0.2,0.27,0.28,0.49,0.2c0.29-0.09,0.46-0.34,0.38-0.68
			c-0.05-0.25-0.19-0.49-0.34-0.89C70.86,41.57,70.64,41.67,70.6,41.83"/>
	</defs>
	<clipPath id="SVGID_79_">
		<use xlink:href="#SVGID_78_"  style="overflow:visible;"/>
	</clipPath>
	
		<linearGradient id="SVGID_80_" gradientUnits="userSpaceOnUse" x1="0" y1="125.6264" x2="1" y2="125.6264" gradientTransform="matrix(69.2015 -60.191 -60.191 -69.2015 7574.8315 8785.9453)">
		<stop  offset="0" style="stop-color:#EEC65F"/>
		<stop  offset="0.23" style="stop-color:#A76F2A"/>
		<stop  offset="0.33" style="stop-color:#E2B755"/>
		<stop  offset="0.58" style="stop-color:#E2B755"/>
		<stop  offset="0.69" style="stop-color:#8F5D21"/>
		<stop  offset="1" style="stop-color:#E2B755"/>
	</linearGradient>
	<polygon class="st26" points="69.68,42.07 71.07,40.87 72.31,42.3 70.93,43.51 	"/>
</g>
<g>
	<defs>
		<path id="SVGID_81_" d="M43.67,93.32c0.26,0.56,0.49,1.15,1.09,1.46c0.08,0.04,0.2-0.02,0.31-0.04c-0.03-0.11-0.02-0.28-0.09-0.34
			c-0.7-0.56-1.09-1.27-1.13-2.18c-0.01-0.11-0.13-0.22-0.26-0.42C43.33,92.42,43.46,92.88,43.67,93.32"/>
	</defs>
	<clipPath id="SVGID_82_">
		<use xlink:href="#SVGID_81_"  style="overflow:visible;"/>
	</clipPath>
	
		<linearGradient id="SVGID_83_" gradientUnits="userSpaceOnUse" x1="0" y1="125.6266" x2="1" y2="125.6266" gradientTransform="matrix(69.2016 -60.191 -60.191 -69.2016 7588.6206 8801.8008)">
		<stop  offset="0" style="stop-color:#EEC65F"/>
		<stop  offset="0.23" style="stop-color:#A76F2A"/>
		<stop  offset="0.33" style="stop-color:#E2B755"/>
		<stop  offset="0.58" style="stop-color:#E2B755"/>
		<stop  offset="0.69" style="stop-color:#8F5D21"/>
		<stop  offset="1" style="stop-color:#E2B755"/>
	</linearGradient>
	<polygon class="st27" points="41.84,93.1 44.32,90.94 46.56,93.52 44.08,95.68 	"/>
</g>
<g>
	<defs>
		<path id="SVGID_84_" d="M61.06,95.3c-0.33,0.02-0.6,0.3-0.58,0.6c0.02,0.27,0.24,0.44,0.56,0.44c0.36,0,0.58-0.24,0.56-0.59
			c-0.02-0.28-0.22-0.46-0.5-0.46C61.08,95.3,61.07,95.3,61.06,95.3"/>
	</defs>
	<clipPath id="SVGID_85_">
		<use xlink:href="#SVGID_84_"  style="overflow:visible;"/>
	</clipPath>
	
		<linearGradient id="SVGID_86_" gradientUnits="userSpaceOnUse" x1="0" y1="125.6262" x2="1" y2="125.6262" gradientTransform="matrix(69.204 -60.1932 -60.1932 -69.204 7597.3599 8811.8496)">
		<stop  offset="0" style="stop-color:#EEC65F"/>
		<stop  offset="0.23" style="stop-color:#A76F2A"/>
		<stop  offset="0.33" style="stop-color:#E2B755"/>
		<stop  offset="0.58" style="stop-color:#E2B755"/>
		<stop  offset="0.69" style="stop-color:#8F5D21"/>
		<stop  offset="1" style="stop-color:#E2B755"/>
	</linearGradient>
	<polygon class="st28" points="59.94,95.75 61.11,94.72 62.13,95.89 60.95,96.91 	"/>
</g>
<g>
	<defs>
		<path id="SVGID_87_" d="M56.08,23.52c-0.63-0.33-1.06-0.77-1.22-1.57c-0.26-1.35,0.37-2.32,1.11-3.29
			c0.08-0.11,0.25-0.19,0.4-0.22c0.74-0.17,1.47,0.19,1.85,0.86c0.15,0.26,0.36,0.48,0.57,0.77c0.13-0.16,0.21-0.26,0.28-0.36
			c0.27-0.36,0.76-0.53,1.17-0.42c0.62,0.17,0.81,0.52,0.53,1.1c-0.16,0.33-0.43,0.61-0.66,0.9c-0.13,0.16-0.3,0.3-0.45,0.44
			c0.18,0.33,0.35,0.59,0.47,0.87c0.17,0.41,0.05,0.74-0.36,0.86c-0.72,0.21-1.45,0.41-2.17,0.41
			C57.1,23.88,56.59,23.78,56.08,23.52 M56.01,17.96c-0.36,0.08-0.59,0.3-0.76,0.6c-0.18,0.33-0.34,0.67-0.53,1
			c-0.35,0.6-0.46,1.24-0.33,1.93c0.08,0.39,0.12,0.79,0.13,1.19c0,0.03-0.01,0.06-0.01,0.09c0.32,0.42,0.64,0.85,0.94,1.3
			c0.09-0.01,0.18-0.03,0.29-0.1c0.08-0.05,0.25,0.05,0.38,0.1c1.35,0.53,2.67,0.26,3.98-0.18c0.47-0.16,0.68-0.56,0.58-1.06
			c-0.06-0.32-0.17-0.64-0.28-0.99c0.11-0.14,0.26-0.28,0.35-0.45c0.21-0.39,0.46-0.77,0.58-1.18c0.18-0.63-0.15-1.14-0.76-1.36
			c-0.51-0.19-1-0.18-1.48,0.11c-0.12,0.07-0.25,0.14-0.37,0.21c-0.62-0.99-1.24-1.29-1.93-1.29C56.55,17.86,56.29,17.9,56.01,17.96
			"/>
	</defs>
	<clipPath id="SVGID_88_">
		<use xlink:href="#SVGID_87_"  style="overflow:visible;"/>
	</clipPath>
	
		<linearGradient id="SVGID_89_" gradientUnits="userSpaceOnUse" x1="0" y1="125.6244" x2="1" y2="125.6244" gradientTransform="matrix(69.2028 -60.1921 -60.1921 -69.2028 7558.8203 8767.54)">
		<stop  offset="0" style="stop-color:#EEC65F"/>
		<stop  offset="0.23" style="stop-color:#A76F2A"/>
		<stop  offset="0.33" style="stop-color:#E2B755"/>
		<stop  offset="0.58" style="stop-color:#E2B755"/>
		<stop  offset="0.69" style="stop-color:#8F5D21"/>
		<stop  offset="1" style="stop-color:#E2B755"/>
	</linearGradient>
	<polygon class="st29" points="50.93,20.75 58.4,14.26 64.86,21.69 57.39,28.18 	"/>
</g>
<g>
	<defs>
		<path id="SVGID_90_" d="M55.27,99.27c-1.15-0.03-2.01-1.01-1.78-2.06c0.14,0.02,0.3,0,0.42,0.06c0.38,0.18,0.75,0.38,1.11,0.6
			c0.38,0.23,0.58,0.6,0.71,1.01c0.15,0.48,0.32,0.96,0.49,1.46c-0.46,0.5-1.44,0.64-2.18,0.34c-0.52-0.21-1-0.96-0.89-2.02
			c0.44,0.31,0.8,0.59,1.19,0.83c0.18,0.11,0.41,0.18,0.62,0.2c0.01,0,0.03,0,0.04,0C55.27,99.7,55.35,99.52,55.27,99.27
			 M40.61,97.83c0.39-0.25,0.83-0.42,1.24-0.63c0.01-0.01,0.03-0.03,0.04-0.04c0.01-0.01,0.02-0.02,0.03-0.03
			c0.05-0.22,0.11-0.44,0.2-0.79c0.06,0.48,0.06,0.5-0.2,0.79c0,0.02-0.01,0.04-0.01,0.05c-0.02,0.01-0.03,0.02-0.05,0.03
			c-0.9,1.11-1.95,2.04-3.32,2.71c-0.02-0.55,0.02-1.01,0.34-1.33c0.59-0.6,1.23-1.15,1.87-1.69c0.17-0.15,0.43-0.19,0.76-0.33
			c-0.11,0.37-0.35,0.38-0.52,0.48c-0.19,0.12-0.37,0.24-0.55,0.37c-0.27,0.19-0.54,0.38-0.78,0.61c-0.18,0.16-0.31,0.38-0.13,0.72
			C39.89,98.43,40.22,98.08,40.61,97.83 M59.86,98.77c-0.35-0.07-0.36-0.35-0.39-0.62c-0.02-0.13,0-0.27,0-0.47
			c0.02-0.44,0.02-0.44-0.51-0.46c-0.39-0.01-0.5-0.11-0.51-0.44c-0.01-0.77,0.98-2.1,1.7-2.29c0.66-0.18,1.13-0.01,1.56,0.6
			c0.26,0.36,0.48,0.75,0.7,1.14c0.25,0.44,0.21,0.9,0.03,1.36c-0.17,0.4-0.33,0.46-0.72,0.25c-0.53-0.28-0.53-0.28-0.88,0.22
			c-0.09,0.13-0.17,0.26-0.25,0.39c-0.14,0.23-0.32,0.35-0.56,0.35C59.97,98.78,59.92,98.78,59.86,98.77 M48.14,91.57
			c1,0.06,2.22,1.24,2.78,2.71c-0.13,0-0.34,0.02-0.34,0c-0.14-0.77-0.88-1.05-1.3-1.59c-0.04-0.05-0.15-0.05-0.25-0.09
			c-0.2,0.42,0.13,0.58,0.32,0.79c0.21,0.23,0.43,0.44,0.72,0.74C48.91,93.99,48.16,92.56,48.14,91.57 M54.68,91.74
			c-0.18-0.1-0.33-0.22-0.24-0.54c0.54-0.15,1.06,0.07,1.56,0.27c0.42,0.17,0.79,0.46,1.18,0.69c0.07,0.04,0.13,0.1,0.2,0.15
			c-0.02,0.05-0.03,0.09-0.05,0.14C56.39,92.42,55.51,92.19,54.68,91.74 M67.63,90.96c0.09-0.03,0.14-0.07,0.17-0.05
			c0.93,0.36,1.92,0.32,2.89,0.43c0.66,0.07,1.3,0.41,1.93,0.68c0.16,0.07,0.31,0.27,0.39,0.44c0.25,0.55,0.26,1.15,0.42,1.75
			c-1.56,0.65-3.03,0.97-4.59,0.33c-0.61-0.25-0.96-0.69-1.06-1.35c-0.05-0.31-0.11-0.61-0.13-0.94c0.47,0.6,1.06,1.05,1.72,1.4
			c0.31,0.17,0.65,0.29,0.99,0.39c0.34,0.09,0.57-0.05,0.63-0.32c0.07-0.31-0.07-0.5-0.4-0.6c-0.04,0.16-0.08,0.3-0.12,0.43
			C69.18,93.34,67.92,92.19,67.63,90.96 M63.15,89.72c-0.78-0.12-1.48-0.41-2.07-1.22c1.26-0.17,2.16,0.21,2.98,0.98
			c-0.14,0.23-0.33,0.29-0.52,0.29C63.41,89.77,63.27,89.74,63.15,89.72 M64.43,85.57c-0.08-0.07-0.19-0.11-0.29-0.15
			c-1.08-0.42-1.57-0.92-1.97-2.08c0.24,0.07,0.44,0.13,0.63,0.19c0.42,0.14,0.83,0.28,1.3,0.15c0.17-0.05,0.39,0.03,0.57,0.1
			c0.45,0.18,0.9,0.37,1.34,0.58c0.26,0.12,0.47,0.31,0.52,0.7c-0.75-0.03-1.36-0.27-1.87-0.78c-0.15-0.15-0.25-0.45-0.57-0.33
			c0.05,0.58,0.1,0.63,2.02,1.67c-0.33,0.15-0.63,0.25-0.92,0.25C64.93,85.87,64.68,85.78,64.43,85.57 M73.46,84.03
			c-0.08-0.39-0.14-0.78-0.19-1.18c-0.02-0.19-0.04-0.4,0.03-0.58c0.14-0.38,0.42-0.43,0.71-0.14c0.38,0.38,0.67,0.82,0.73,1.38
			c0.08,0.84,0.04,1.67-0.2,2.52C73.95,85.48,73.61,84.81,73.46,84.03 M67.81,79.06c0.77-0.82,1.8-1.08,2.78-1.33
			c1.47-0.38,3.24-0.21,3.89,0.27c-0.23,0.11-0.41,0.23-0.6,0.28c-1.02,0.27-2.05,0.39-3.1,0.32c-0.23-0.01-0.48-0.11-0.72,0.21
			c0.68,0.23,1.33,0.17,1.97,0.12c0.65-0.05,1.3-0.16,2.07-0.25c-0.75,0.7-2.05,1.13-3.4,1.13C69.7,79.83,68.67,79.6,67.81,79.06
			 M77.88,77.08c-0.38-0.95-0.25-1.9,0.39-2.82c0.4,0.21,0.54,0.5,0.59,0.8c0.19,1.05,0.36,2.1,0.53,3.16c0.02,0.1,0,0.21,0,0.41
			C78.51,78.43,78.15,77.75,77.88,77.08 M74.42,73.57c0-0.44,0.29-0.73,0.6-0.95c0.94-0.66,2.01-1,3.12-1.25
			c0.06-0.01,0.13,0.02,0.26,0.05c-1.09,1.18-2.4,2.21-3.53,2.21C74.72,73.63,74.57,73.61,74.42,73.57 M83.71,69.74
			c-1.02-0.91-1.87-1.93-2.7-3.09c1.34,0.06,2.32,0.59,3.05,1.52c0.49,0.63,0.85,1.35,1.26,2.04c0.09,0.15,0.13,0.33,0.17,0.5
			c0.12,0.5-0.04,0.68-0.55,0.57c-0.93-0.21-1.75-0.67-2.45-1.3c-0.77-0.69-1.39-1.5-1.64-2.72c0.53,0.6,0.95,1.08,1.39,1.56
			c0.3,0.33,0.6,0.66,0.92,0.97c0.07,0.07,0.12,0.11,0.18,0.11C83.42,69.9,83.51,69.84,83.71,69.74 M75.39,63.95
			c0.17-0.66,0.66-1.06,1.16-1.44c0.51-0.38,1.08-0.41,1.81-0.3c-0.58,0.64-1.27,0.56-1.89,0.74c0.31,0.27,0.31,0.27,1.47,0.15
			c-0.29,0.53-1.19,0.94-1.96,0.94C75.76,64.05,75.56,64.02,75.39,63.95 M83.71,61.6c-0.45-0.47-0.9-1-0.95-1.72
			c-0.05-0.64,0.01-1.24,0.62-1.62c0.15-0.09,0.25-0.25,0.4-0.34c0.87-0.58,1.54-0.56,2.4,0.04c0.15,0.1,0.29,0.21,0.43,0.32
			c0.54,0.43,0.56,0.97,0.03,1.45c-0.07,0.06-0.15,0.1-0.21,0.17c-0.15,0.17-0.15,0.36,0.07,0.42c0.39,0.1,0.64,0.29,0.68,0.71
			c0.05,0.47-0.04,0.88-0.42,1.2c-0.05,0.04-0.1,0.09-0.25,0.21c-0.42-0.39-0.82-0.76-1.21-1.11c-0.08,0.03-0.14,0.03-0.15,0.06
			c-0.22,0.39-0.47,0.6-0.75,0.6C84.18,61.97,83.95,61.85,83.71,61.6 M76.77,54.73c-0.39,0.4-0.84,0.68-1.35,0.86
			c-0.17,0.06-0.4,0.06-0.32,0.31c0.09,0.28,0.32,0.15,0.5,0.07c0.34-0.16,0.67-0.33,1.01-0.49c0.08-0.04,0.17-0.04,0.33-0.08
			c-0.09,0.29-0.24,0.46-0.45,0.56c-0.5,0.24-1,0.48-1.52,0.66c-0.18,0.06-0.45,0.01-0.63-0.08c-0.37-0.21-0.64-0.52-0.75-1
			c0.61-0.11,1.16-0.17,1.69-0.31C75.78,55.09,76.26,54.86,76.77,54.73L76.77,54.73 M79.97,46.65c0.4-0.33,0.79-0.39,1.18-0.46
			c0.93-0.16,1.82,0.04,2.68,0.36c0.15,0.05,0.29,0.13,0.4,0.24c0.55,0.55,1.08,1.11,1.66,1.71c-0.38,0.39-0.84,0.48-1.3,0.47
			c-1.09-0.02-2.18-0.11-3.17-0.65c-0.25-0.14-0.54-0.2-0.82-0.28c-0.58-0.17-1.08-0.45-1.36-1.11c0.3,0.11,0.6,0.22,0.89,0.32
			c0.71,0.25,1.42,0.51,2.14,0.73c0.41,0.13,0.84,0.12,1.16-0.46c-0.12,0-0.23,0.01-0.35,0.01C81.99,47.54,80.98,47.27,79.97,46.65
			 M74.47,49c-0.34-0.45-0.35-0.98-0.22-1.5c0.25-1.02,0.77-1.92,1.45-2.72c0.06,0.02,0.11,0.04,0.17,0.06
			c-0.11,0.38-0.18,0.78-0.36,1.11c-0.18,0.33-0.48,0.6-0.73,0.91c0.45,0.1,0.88-0.1,1.11-0.59c0.19-0.4,0.3-0.83,0.46-1.3
			c0.03,0.15,0.1,0.29,0.08,0.41c-0.22,1.16-0.51,2.29-1.25,3.26c-0.15,0.2-0.33,0.35-0.6,0.35C74.54,49,74.5,49,74.47,49
			 M70.21,45.02c-0.55-0.28-0.84-0.81-0.78-1.43c0.01-0.15,0.05-0.3,0.07-0.45c-0.64-0.33-0.69-0.34-0.5-1.01
			c0.16-0.57,0.39-1.14,0.69-1.65c0.39-0.65,1.48-0.68,2.14-0.13c0.97,0.82,1.42,1.86,1.36,3.12c-0.01,0.13-0.02,0.27-0.06,0.39
			c-0.18,0.62-0.78,0.84-1.31,0.49c-0.18-0.12-0.34-0.26-0.58-0.45c-0.13,0.35-0.22,0.62-0.34,0.87c-0.11,0.24-0.2,0.34-0.35,0.34
			C70.45,45.12,70.34,45.08,70.21,45.02 M78.33,40.69c-0.28-0.1-0.49-0.19-0.71-0.24c-0.48-0.12-0.96-0.21-1.43-0.35
			c-0.47-0.14-0.93-0.31-1.25-0.84c0.97-0.45,1.92-0.8,2.92-0.24c0.8,0.45,1.55,1.01,2.36,1.55c-0.97,0.54-1.89,1.01-2.99,0.38
			c0.12-0.05,0.26-0.03,0.39,0c0.08,0.01,0.16,0.03,0.23,0.03C78.03,40.98,78.18,40.92,78.33,40.69 M71.05,32.8
			c0.68-1.51,2.62-1.32,3.82-0.39c-0.57,1.15-2.52,1.7-3.74,1.01c0.84-0.31,1.67-0.26,2.42-0.59c0.02-0.01,0.01-0.08,0.01-0.17
			c-0.53-0.25-1.05-0.12-1.56,0c-0.3,0.07-0.6,0.14-0.9,0.14C71.07,32.8,71.06,32.8,71.05,32.8 M64.19,30.64
			c0.34,0.58,0.41,1.2,0.37,1.79c-0.04,0.59-0.25,1.17-0.39,1.79c0.45,0.04,0.63-0.22,0.69-0.52c0.1-0.43,0.13-0.88,0.17-1.32
			c0.02-0.22,0-0.44,0-0.67c0.76,1.18,0.84,3.23-0.78,4.7C63.22,35.13,63.18,31.99,64.19,30.64 M67.84,26.02
			c-0.06,0.93-1.1,1.52-2.56,1.3c0.17-0.07,0.34-0.14,0.52-0.2c0.13-0.05,0.27-0.06,0.38-0.13c0.08-0.05,0.15-0.18,0.14-0.26
			c-0.01-0.08-0.15-0.18-0.22-0.18c-0.26,0.01-0.52,0.06-0.78,0.1C65.8,25.81,66.79,25.56,67.84,26.02 M56.5,25.79
			c0.9,0.33,1.8,0.69,2.68,1.05c0.86,0.35,1.64,0.89,2.45,1.35c0.64,0.36,1.28,0.71,1.9,1.1c0.22,0.14,0.38,0.39,0.54,0.57
			c-0.64,0.73-0.85,1.55-0.99,2.38c-0.23,1.33,0.11,2.61,0.44,3.88c0.08,0.29,0.11,0.58,0.19,1c0.17,0.15,0.44,0.13,0.67-0.11
			c0.84-0.85,1.56-1.77,1.59-3.05c0.02-0.74-0.03-1.47-0.29-2.17c-0.1-0.28-0.19-0.58-0.29-0.9c0.34-0.06,0.48,0.15,0.61,0.29
			c0.82,0.84,1.7,1.63,2.44,2.55c0.62,0.77,1.13,1.63,1.97,2.16c0.37,0.31,0.66,0.71,0.96,1.1c0.13,0.17,0.21,0.4,0.25,0.61
			c0.05,0.33,0.06,0.67,0.05,1c-0.05,1.01-0.23,0.94-0.92,0.91c-0.73-0.03-1.28,0.29-1.59,0.99c-0.29,0.65-0.59,1.29-0.89,1.94
			c-0.15,0.32-0.07,0.58,0.21,0.75c0.35,0.22,0.51,0.48,0.52,0.92c0.02,0.63,0.8,1.39,1.43,1.52c0.28,0.06,0.49-0.01,0.65-0.23
			c0.13-0.18,0.25-0.36,0.39-0.56c0.1,0.01,0.19-0.01,0.26,0.03c0.64,0.32,1.14,0.11,1.62-0.36c0.23-0.22,0.34-0.45,0.34-0.76
			c0.02-1.34-0.27-2.57-1.29-3.52c-0.27-0.26-0.36-0.52-0.3-0.89c0.07-0.46,0.08-0.92,0.13-1.46c0.42,0.27,0.67,0.61,0.88,0.95
			c0.63,1,1.22,2.01,1.83,3.02c0.24,0.4,0.47,0.81,0.7,1.21c0.2,0.34,0.19,0.63-0.06,0.98c-0.69,0.98-1.39,1.97-1.67,3.17
			c-0.08,0.32-0.12,0.65-0.11,0.98c0,0.43,0.07,0.87,0.11,1.38c0.59,0.11,1.09-0.14,1.49-0.58c0.52-0.57,0.82-1.27,1.05-1.99
			c0.17-0.53,0.3-1.06,0.46-1.6c0.34-0.01,0.43,0.25,0.53,0.45c0.34,0.67,0.66,1.36,0.99,2.04c0.18,0.38,0.36,0.77,0.53,1.15
			c0.53,1.14,0.51,2.27,0.03,3.42c-0.25,0.6-0.78,0.94-1.28,1.21c-0.91,0.49-1.9,0.86-2.88,1.23c-0.5,0.19-1.04,0.22-1.56-0.07
			c-0.11-0.06-0.35-0.01-0.46,0.08c-0.07,0.05-0.05,0.31,0.02,0.41c0.29,0.44,0.61,0.87,0.94,1.29c0.42,0.54,0.96,0.57,1.57,0.35
			c1.11-0.39,1.94-1.15,2.67-2.04c0.57-0.69,0.99-1.48,1.35-2.29c0.1-0.21,0.23-0.4,0.38-0.65c0.12,0.14,0.21,0.2,0.22,0.27
			c0.21,1.04,0.49,2.06,0.3,3.16c-0.11,0.61,0.06,1.28,0.12,1.92c0.06,0.58,0.11,1.15,0.22,1.72c0.18,0.92-0.32,1.63-0.67,2.39
			c-0.17,0.36-0.54,0.33-0.88,0.34c-0.6,0.02-1.2,0.02-1.79,0.1c-0.69,0.09-1.23,0.47-1.66,1.03c-0.31,0.4-0.64,0.78-0.99,1.19
			c0.1,0.09,0.17,0.21,0.28,0.25c0.54,0.19,1.08,0.27,1.63,0.06c0.73-0.27,1.45-0.56,2.05-1.08c0.67-0.58,1.33-1.15,2.04-1.77
			c-0.13,0.73-0.25,1.47-0.38,2.2c-0.14,0.79-0.29,1.58-0.4,2.37c-0.04,0.29-0.13,0.63,0.22,0.84c0.06,0.03,0.1,0.16,0.08,0.23
			c-0.11,0.63,0,1.29-0.34,1.89c-0.25,0.42-0.44,0.87-0.64,1.32c-0.12,0.28-0.31,0.39-0.61,0.44c-1.22,0.2-2.33,0.72-3.43,1.26
			c-0.25,0.12-0.43,0.38-0.65,0.57c-0.24,0.22-0.47,0.44-0.74,0.63c-0.13,0.21-0.02,0.39,0.18,0.46c0.31,0.1,0.65,0.24,0.96,0.2
			c0.71-0.08,1.39-0.29,1.96-0.77c0.45-0.37,0.92-0.7,1.39-1.04c0.12-0.09,0.26-0.14,0.43-0.23c0.08,0.6-0.21,1.02-0.53,1.35
			c-0.32,0.32-0.45,0.69-0.59,1.09c-0.39,1.17-1.06,2.19-1.78,3.18c-0.16,0.22-0.4,0.22-0.6,0.12c-1.02-0.53-2.12-0.44-3.2-0.48
			c-0.99-0.04-1.94,0.11-2.85,0.57c-0.61,0.31-1.28,0.5-1.8,0.99c-0.13,0.13-0.35,0.16-0.53,0.23c-0.09,0.23,0,0.35,0.21,0.4
			c1.17,0.29,2.33,0.59,3.5,0.85c0.27,0.06,0.58,0.01,0.86-0.04c0.7-0.14,1.39-0.29,2.08-0.47c0.23-0.06,0.44-0.19,0.66-0.31
			c0.22-0.12,0.44-0.26,0.69-0.34c-0.16,0.61-0.48,1.11-0.86,1.56c-0.19,0.22-0.21,0.21-0.89,0.15c-0.1,0.32-0.27,0.65-0.3,0.99
			c-0.04,0.44-0.26,0.74-0.53,1.04c-0.36,0.39-0.75,0.76-1.07,1.19c-0.53,0.73-1.29,0.96-2.12,1.08c-0.29,0.04-0.58,0.03-0.86,0.06
			c-0.54,0.06-0.93-0.09-1.23-0.58c-0.15-0.25-0.44-0.43-0.71-0.58c-0.92-0.53-1.89-0.86-2.96-0.94c-0.4-0.03-0.78-0.27-1.17-0.42
			c-0.15-0.06-0.29-0.13-0.55-0.25c0.02,0.3,0.01,0.47,0.05,0.63c0.1,0.43,0.21,0.86,0.33,1.29c0.04,0.14,0.13,0.28,0.23,0.39
			c0.7,0.79,1.62,1.24,2.62,1.51c0.51,0.13,1.05,0.04,1.49-0.22c0.67-0.4,1.38-0.45,2.12-0.42c0.3,0.01,0.6,0.01,1.02,0.02
			c-0.71,0.89-1.63,1.28-2.36,1.9c-0.74,0.63-1.55,1.17-2.3,1.73c-0.61-0.31-1.13-0.61-1.68-0.86c-0.69-0.31-1.41-0.4-2.15-0.25
			c-0.38,0.08-0.43,0.22-0.24,0.55c0.38,0.68,1,1.05,1.71,1.29c0.25,0.09,0.5,0.16,0.83,0.26c-0.14,0.14-0.22,0.28-0.34,0.33
			c-0.46,0.21-0.94,0.39-1.41,0.59c-0.21,0.09-0.4,0.19-0.6,0.29c-0.52,0.24-1.03,0.51-1.57,0.71c-0.17,0.07-0.49,0.05-0.62-0.07
			c-0.71-0.62-1.58-0.78-2.45-0.99c-0.43-0.1-0.87-0.2-1.3-0.31c-0.4-0.1-0.79-0.07-1.17,0.18c0.02,0.65,0.37,1.08,0.94,1.3
			c0.53,0.21,1.09,0.36,1.65,0.53c0.23,0.07,0.46,0.12,0.85,0.23c-0.32,0.14-0.49,0.22-0.66,0.28c-0.73,0.26-1.45,0.55-2.2,0.76
			c-0.89,0.26-1.8,0.45-2.72,0.67c-0.8-1.92-1.96-3.38-3.94-3.99c-0.33,0.47-0.07,1.59,0.5,2.65c0.51,0.94,1.48,1.12,2.45,1.58
			c-1.66,0.32-3.2,0.37-4.83,0.39c0.05-0.26,0.07-0.47,0.12-0.67c0.4-1.63,0.01-2.99-1.37-4.02c-0.43-0.32-0.84-0.67-1.27-1
			c-0.13,0.1-0.26,0.2-0.39,0.3c0.97,0.56,1.86,1.22,2.4,2.28c0.54,1.06,0.38,2.27-0.4,3.28c-0.16-0.07-0.38-0.11-0.52-0.23
			c-0.9-0.83-1.75-1.72-2.12-2.93c-0.17-0.56-0.21-1.17-0.25-1.77c-0.16,0.11-0.31,0.21-0.47,0.3c0.12,1.1,0.26,2.2,1.06,3.1
			c0.44,0.5,0.85,1.01,1.36,1.61c-0.94,0.01-1.79,0.02-2.65,0.03c-0.05,0-0.09,0-0.13,0c-0.22-0.01-0.42-0.01-0.6,0.19
			c-0.08,0.09-0.29,0.1-0.43,0.08c-0.33-0.02-0.66-0.08-1.02-0.12c-0.06-0.13-0.12-0.24-0.16-0.36c-0.16-0.54-0.31-1.07-0.47-1.61
			c-0.13,0.53-0.26,1.07-0.4,1.6c-0.01,0.06-0.03,0.11-0.04,0.17c0.04,0.05,0.08,0.09,0.12,0.14c-0.03,0-0.06,0-0.08,0
			c-0.02,0-0.05,0-0.07,0c-0.04,0.17-0.08,0.33-0.13,0.5c0.31,0.03,0.62,0.04,0.94,0.04c0.04,0,0.09,0,0.13,0
			c0.4,0,0.84,0,1.22,0.29c-0.45,0.46-0.86,0.9-1.3,1.3c-0.6,0.54-0.85,1.24-0.99,1.99c-0.11,0.59,0.11,0.79,0.64,0.55
			c0.5-0.23,1-0.49,1.43-0.84c1.05-0.85,2.19-1.62,2.77-2.92c0.21-0.47,0.53-0.65,1.06-0.59c0.48,0.05,1.01,0.11,1.46-0.02
			c0.94-0.28,1.89-0.24,2.85-0.22c0.12,0,0.24,0.06,0.43,0.11c-0.3,0.44-0.56,0.82-0.81,1.21c-0.33,0.52-0.33,0.52-0.98,0.42
			c-1.17-0.19-1.93,0.18-2.5,1.2c-0.24,0.42-0.37,0.83,0.07,1.16c-0.14,0.36-0.28,0.69-0.39,1.02c-0.18,0.61,0.15,1.35,0.78,1.78
			c0.42,0.28,0.94,0.22,1.48-0.2c0.21-0.16,0.41-0.34,0.6-0.5c0.81,0.53,1.24,0.4,1.63-0.47c0.17-0.39,0.35-0.77,0.5-1.16
			c0.05-0.14,0.06-0.31,0.04-0.46c-0.14-0.72-0.6-1.23-1.17-1.64c-0.17-0.12-0.34-0.1-0.44,0.21c0.15,0.11,0.33,0.23,0.49,0.38
			c0.36,0.36,0.76,0.74,0.63,1.31c-0.09,0.41-0.28,0.8-0.44,1.18c-0.1,0.23-0.24,0.52-0.51,0.41c-0.18-0.07-0.28-0.35-0.4-0.55
			c-0.03-0.05,0-0.14-0.03-0.19c-0.06-0.11-0.15-0.2-0.22-0.3c-0.09,0.11-0.19,0.21-0.26,0.32c-0.03,0.05-0.03,0.13-0.04,0.19
			c-0.08,0.58-0.52,0.86-0.97,1.11c-0.24,0.14-0.47,0.06-0.68-0.1c-0.73-0.56-0.71-1.62,0.06-2.17c0.15-0.11,0.33-0.2,0.59-0.35
			c-0.21-0.11-0.33-0.19-0.46-0.23c-0.16-0.05-0.33-0.08-0.49-0.11c0.17-1.05,0.73-1.52,1.69-1.46c0.33,0.02,0.66,0.1,0.99,0.13
			c0.25,0.02,0.48-0.01,0.63-0.28c0.34-0.62,0.72-1.22,1.05-1.85c0.11-0.21,0.26-0.26,0.47-0.31c0.98-0.19,1.96-0.41,2.94-0.6
			c0.55-0.11,1.1-0.26,1.76-0.21c-0.26,0.38-0.46,0.69-0.69,0.99c-0.98,1.24-0.98,2.63-0.62,4.06c0.3,1.19,1.17,1.5,2.33,1.34
			c0.54-0.08,1.07-0.31,1.59-0.49c0.19-0.07,0.35-0.22,0.52-0.33c0.02-0.05,0.04-0.1,0.06-0.15c-0.96-0.21-1.05-0.98-1.24-1.68
			c-0.12-0.45-0.41-0.79-0.81-1.02c-0.42-0.24-0.86-0.46-1.29-0.69c-0.15-0.08-0.29-0.17-0.47-0.28c0.36-0.53,0.68-1.01,1-1.49
			c0.44-0.66,1.06-1.05,1.82-1.25c0.47-0.12,0.92-0.31,1.37-0.51c0.44-0.2,0.86-0.47,1.28-0.26c0.78-0.77,1.78-0.83,2.71-1.26
			c-0.34,0.71-0.61,1.32-0.93,1.9c-0.09,0.16-0.35,0.28-0.55,0.31c-0.67,0.1-1.15,0.46-1.49,1.01c-0.26,0.42-0.51,0.84-0.74,1.27
			c-0.27,0.5-0.08,1.1,0.42,1.36c0.16,0.08,0.33,0.13,0.5,0.19c0.02,0.22,0.06,0.42,0.07,0.61c0.02,0.61,0.66,0.88,1.1,0.81
			c0.35-0.06,0.6-0.27,0.81-0.54c0.13-0.17,0.26-0.34,0.39-0.5c0.24,0.1,0.42,0.2,0.61,0.26c0.7,0.2,1.36-0.39,1.25-1.12
			c-0.17-1.16-0.62-2.18-1.49-2.97c-0.22-0.2-0.27-0.42-0.27-0.71c-0.01-0.52,0.32-0.88,0.61-1.23c0.32-0.39,0.18-0.97,0.59-1.27
			c0.39-0.29,0.83-0.51,1.23-0.79c0.85-0.6,1.7-1.22,2.55-1.82c0.11-0.08,0.26-0.12,0.44-0.2c0,0.45-0.03,0.82,0.01,1.19
			c0.08,0.9,0.17,1.8,0.29,2.7c0.06,0.44,0.16,0.88,0.29,1.3c0.14,0.44,0.26,0.94,0.73,1.15c0.5,0.22,1.03,0.44,1.57,0.53
			c1.36,0.22,2.65-0.19,3.94-0.53c0.32-0.08,0.33-0.33,0.28-0.59c-0.1-0.45-0.22-0.91-0.32-1.36c-0.13-0.62-0.5-1.01-1.06-1.28
			c-0.94-0.46-1.93-0.67-2.97-0.64c-0.64,0.01-1.23-0.19-1.8-0.46c-0.29-0.14-0.54-0.34-0.52-0.71c0.02-0.44,0-0.9,0.11-1.33
			c0.09-0.34,0.31-0.7,0.56-0.95c0.35-0.36,0.81-0.63,1.19-0.96c0.56-0.48,1.11-0.96,1.63-1.47c0.54-0.53,1.04-1.1,1.56-1.64
			c0.13-0.13,0.24-0.34,0.5-0.23c0.02,0.06,0.05,0.12,0.07,0.18c0.03,0.11,0.06,0.22,0.06,0.33c0.01,1.03,0.5,1.88,1,2.72
			c0.11,0.19,0.24,0.38,0.4,0.53c0.27,0.26,0.61,0.18,0.74-0.17c0.05-0.12,0.05-0.26,0.06-0.39c0.03-0.53,0.05-1.06,0.09-1.6
			c0.07-1.01-0.11-1.95-0.82-2.73c-0.16-0.18-0.29-0.38-0.44-0.58c0.18-0.28,0.34-0.52,0.49-0.77c0.6-1.01,1.19-2.03,1.8-3.03
			c0.25-0.42,0.47-0.88,0.93-1.18c0.57,1.81,1.61,2.87,2.8,2.83c-0.03-0.26-0.04-0.52-0.08-0.78c-0.16-0.99-0.33-1.97-0.49-2.96
			c-0.08-0.51-0.25-0.99-0.6-1.39c-0.11-0.13-0.21-0.28-0.25-0.35c0.26-0.72,0.58-1.35,0.7-2.02c0.24-1.24,0.91-2.3,1.31-3.46
			c0.07,0.01,0.1,0.01,0.11,0.02c0.08,0.13,0.17,0.26,0.24,0.39c0.5,0.92,1.23,1.64,2.09,2.2c0.74,0.49,1.52,0.94,2.47,0.88
			c0.34-0.02,0.66-0.07,0.85-0.38c-0.14-0.24-0.29-0.44-0.36-0.66c-0.25-0.82-0.7-1.53-1.17-2.24c-0.69-1.05-1.56-1.86-2.87-2.11
			c-0.54-0.1-1.13-0.23-1.07-1.01c-0.28-0.32-0.29-0.71-0.19-1.08c0.21-0.8,0.2-1.62,0.28-2.43c0.13-1.32,0.04-2.62-0.13-3.93
			c-0.05-0.38-0.04-0.77-0.07-1.32c0.57,0.53,0.99,0.95,1.44,1.32c0.32,0.26,0.43,0.52,0.31,0.92c-0.15,0.5-0.18,1.03,0.03,1.51
			c0.21,0.51,0.48,1.01,0.8,1.46c0.15,0.21,0.45,0.34,0.7,0.45c0.48,0.2,0.95,0.12,1.39-0.15c0.17,0.13,0.33,0.22,0.46,0.33
			c0.58,0.52,0.82,0.37,1.31-0.09c0.18-0.17,0.3-0.44,0.36-0.69c0.16-0.62,0-1.19-0.39-1.69c0.05-0.12,0.1-0.22,0.14-0.32
			c0.35-0.88,0.26-1.22-0.51-1.8c-0.11-0.08-0.2-0.17-0.31-0.25c-0.99-0.7-1.96-0.7-2.96-0.01c-0.5,0.35-0.72,0.36-1.18-0.04
			c-0.44-0.38-0.84-0.8-1.24-1.21c-0.28-0.28-0.39-0.63-0.38-1.03c0.01-0.46,0-0.94-0.05-1.4c-0.25-1.93-0.86-3.76-1.61-5.55
			c-0.12-0.28-0.21-0.56-0.31-0.85c0.5,0.2,0.88,0.51,1.31,0.73c0.43,0.22,0.92,0.33,1.36,0.55c1.08,0.51,2.22,0.67,3.38,0.59
			c0.47-0.03,0.95-0.22,1.4-0.4c0.22-0.09,0.39-0.31,0.54-0.45c-0.77-0.73-1.47-1.4-2.19-2.06c-0.16-0.15-0.35-0.3-0.55-0.37
			c-1.09-0.36-2.19-0.63-3.33-0.26c-0.53,0.17-1.05,0.36-1.57,0.57c-0.63,0.26-0.66,0.21-1.06-0.35c-0.68-0.97-1.08-2.1-1.88-3.01
			c-0.57-0.65-0.88-1.52-1.33-2.35c0.93,0.29,1.74,0.56,2.56,0.81c0.54,0.17,1.09,0.32,1.63,0.1c0.74-0.31,1.46-0.66,2.18-1.01
			c0.17-0.08,0.36-0.2,0.29-0.45c-0.04-0.03-0.08-0.07-0.11-0.07c-0.82,0.05-1.51-0.25-2.14-0.75c-0.29-0.23-0.64-0.4-0.96-0.61
			c-0.92-0.59-1.88-0.62-2.87-0.2c-0.51,0.21-1.02,0.41-1.58,0.63c-0.32-0.44-0.61-0.87-0.92-1.27c-0.51-0.64-1.01-1.29-1.57-1.89
			c-0.39-0.42-0.89-0.73-1.29-1.14c-0.4-0.41-0.75-0.88-1.13-1.32c-0.13-0.15-0.26-0.29-0.15-0.6c0.4,0.13,0.78,0.22,1.14,0.38
			c0.55,0.24,1.08,0.51,1.62,0.77c0.64,0.31,1.25,0.17,1.87-0.08c0.86-0.35,1.57-0.92,2.24-1.54c0.16-0.14,0.39-0.31,0.27-0.65
			c-0.66,0.18-1.22-0.11-1.79-0.34c-0.23-0.09-0.46-0.17-0.7-0.22c-0.73-0.14-1.43-0.06-2.05,0.37c-0.29,0.2-0.58,0.43-0.8,0.71
			c-0.3,0.38-0.65,0.4-1.07,0.29c-0.4-0.12-0.81-0.32-1.21-0.31c-0.38,0.01-0.57-0.14-0.8-0.36c-0.98-0.97-2.01-1.89-3.16-2.66
			c-0.49-0.33-0.94-0.7-1.49-1.11c0.8-0.26,1.48-0.48,2.24-0.33c0.7,0.14,1.37,0,2.03-0.24c0.78-0.28,1.1-0.99,1.53-1.6
			c0.04-0.06-0.08-0.34-0.17-0.37c-0.55-0.17-1.12-0.43-1.66-0.39c-1.09,0.07-1.98,0.63-2.57,1.58c-0.19,0.31-0.43,0.51-0.77,0.59
			c-0.32,0.07-0.65,0.16-0.98,0.19c-0.47,0.04-0.89-0.05-1.33-0.29c-1.38-0.76-2.8-1.45-4.31-1.94c-0.23-0.07-0.47-0.15-0.7-0.23
			C56.29,25.37,56.39,25.58,56.5,25.79"/>
	</defs>
	<clipPath id="SVGID_91_">
		<use xlink:href="#SVGID_90_"  style="overflow:visible;"/>
	</clipPath>
	
		<linearGradient id="SVGID_92_" gradientUnits="userSpaceOnUse" x1="0" y1="125.6075" x2="1" y2="125.6075" gradientTransform="matrix(69.2028 -60.192 -60.192 -69.2028 7581.1323 8793.1924)">
		<stop  offset="0" style="stop-color:#EEC65F"/>
		<stop  offset="0.23" style="stop-color:#A76F2A"/>
		<stop  offset="0.33" style="stop-color:#E2B755"/>
		<stop  offset="0.58" style="stop-color:#E2B755"/>
		<stop  offset="0.69" style="stop-color:#8F5D21"/>
		<stop  offset="1" style="stop-color:#E2B755"/>
	</linearGradient>
	<polygon class="st30" points="-0.72,58.69 66.23,0.45 126.27,69.48 59.32,127.72 	"/>
</g>
<g>
	<defs>
		<path id="SVGID_93_" d="M13.13,43.07c-0.02,0.02-0.04,0.05-0.05,0.07c0.3-0.03,0.59-0.08,0.88-0.15c0.01-0.01,0.02-0.02,0.03-0.03
			c0.41-0.37,0.93-0.57,1.49-0.56c0.2-0.11,0.41-0.22,0.61-0.34c0,0,0,0-0.01-0.01c-0.3-0.18-0.69-0.23-1.1-0.36
			C14.35,42.06,13.62,42.39,13.13,43.07"/>
	</defs>
	<clipPath id="SVGID_94_">
		<use xlink:href="#SVGID_93_"  style="overflow:visible;"/>
	</clipPath>
	
		<linearGradient id="SVGID_95_" gradientUnits="userSpaceOnUse" x1="0" y1="125.627" x2="1" y2="125.627" gradientTransform="matrix(69.2014 -60.1909 -60.1909 -69.2014 7550.6699 8758.168)">
		<stop  offset="0" style="stop-color:#EEC65F"/>
		<stop  offset="0.23" style="stop-color:#A76F2A"/>
		<stop  offset="0.33" style="stop-color:#E2B755"/>
		<stop  offset="0.58" style="stop-color:#E2B755"/>
		<stop  offset="0.69" style="stop-color:#8F5D21"/>
		<stop  offset="1" style="stop-color:#E2B755"/>
	</linearGradient>
	<polygon class="st31" points="12.36,42.31 14.79,40.2 16.8,42.52 14.38,44.63 	"/>
</g>
<g>
	<defs>
		<path id="SVGID_96_" d="M3.54,42.63c0.35-0.12,0.71-0.05,1.01,0.14c0.51,0.32,1,0.67,1.47,1.04c0.29,0.23,0.56,0.5,0.58,1.03
			c-0.47-0.41-0.85-0.75-1.23-1.07c-0.05-0.04-0.16,0-0.28,0c-0.06,0.53,0.41,0.71,0.65,1.01c0.24,0.3,0.55,0.55,0.72,0.97
			C5.18,45.47,3.38,43.77,3.54,42.63 M2.6,42.3c0.14,0.27,0.26,0.55,0.41,0.81c0.3,0.52,0.56,1.07,0.93,1.53
			c0.61,0.75,1.42,1.28,2.32,1.64c0.49,0.19,0.85,0.48,1.05,0.91c0.11-0.09,0.25-0.19,0.38-0.29c-0.05-0.13-0.09-0.26-0.14-0.39
			c-0.24-0.53-0.42-1.06-0.42-1.65c0-0.56-0.29-1.03-0.72-1.38c-0.51-0.4-1.03-0.77-1.58-1.11c-0.34-0.21-0.77-0.31-1.18-0.31
			C3.25,42.05,2.88,42.14,2.6,42.3"/>
	</defs>
	<clipPath id="SVGID_97_">
		<use xlink:href="#SVGID_96_"  style="overflow:visible;"/>
	</clipPath>
	
		<linearGradient id="SVGID_98_" gradientUnits="userSpaceOnUse" x1="0" y1="125.6258" x2="1" y2="125.6258" gradientTransform="matrix(69.2021 -60.1914 -60.1914 -69.2021 7547.6968 8754.751)">
		<stop  offset="0" style="stop-color:#EEC65F"/>
		<stop  offset="0.23" style="stop-color:#A76F2A"/>
		<stop  offset="0.33" style="stop-color:#E2B755"/>
		<stop  offset="0.58" style="stop-color:#E2B755"/>
		<stop  offset="0.69" style="stop-color:#8F5D21"/>
		<stop  offset="1" style="stop-color:#E2B755"/>
	</linearGradient>
	<polygon class="st32" points="0.05,44.26 5.49,39.53 10.23,44.97 4.79,49.7 	"/>
</g>
<g>
	<defs>
		<path id="SVGID_99_" d="M20.61,90.37c0.84-0.19,1.35,0.15,1.49,0.97c0.14,0.79-0.12,1.54-0.28,2.3c-0.13,0.6-0.27,1.2-0.41,1.85
			c-0.41-0.01-0.76-0.31-1.04-0.63c-0.38-0.43-0.71-0.91-1.02-1.39c-0.41-0.64-0.27-1.33-0.12-2c0.08-0.35,0.34-0.6,0.71-0.72
			c0.73,2.44,0.78,2.52,1.43,2.68C20.89,92.41,20.44,91.45,20.61,90.37 M24.97,89.78c-0.34-1.07-0.52-2.15,0.19-3.35
			c0.4,1.35,0.46,2.58,0.28,3.86C25.06,90.26,25.03,89.99,24.97,89.78 M14.49,87.73c-0.06-0.21-0.17-0.41-0.22-0.63
			c-0.07-0.27-0.06-0.56,0.19-0.73c0.38-0.25,0.8-0.45,1.26-0.71c0.31,0.77,0.34,1.47-0.12,2.08c-0.4,0.52-0.66,1.1-0.91,1.69
			c-0.1,0.23-0.29,0.43-0.45,0.64c-0.15,0.19-0.32,0.36-0.53,0.58c-0.68-0.52-1.03-1.21-1.01-2.08c0.01-0.37,0.11-0.75,0.15-1.12
			c0.1-0.96,0.41-1.58,1.81-1.76c-0.27,0.2-0.41,0.3-0.54,0.41c-0.33,0.32-0.45,0.69-0.27,1.15c0.23,0.56,0.46,0.99,0.83,1.34
			C14.6,88.21,14.56,87.97,14.49,87.73 M20.62,82.39c0.31,0.01,0.47,0.2,0.53,0.49c0.31,1.51,0.27,3-0.35,4.48
			C19.64,86.84,19.51,83.85,20.62,82.39 M5.9,78.3c0.35-0.42,0.85-0.52,1.34-0.6c1.41-0.23,2.79-0.18,4.05,0.7
			c-0.11,0.18-0.28,0.1-0.43,0.07c-0.87-0.19-1.74-0.33-2.63-0.17c-0.21,0.04-0.42,0.09-0.7,0.15c0.21,0.38,0.44,0.35,0.69,0.33
			c0.51-0.04,1.02-0.06,1.52-0.06c0.2,0,0.41,0.08,0.65,0.14c-0.44,0.48-1.02,0.67-1.62,0.67C7.75,79.53,6.64,78.98,5.9,78.3
			 M15.23,80.68c0.09-1.54,0.56-2.96,1.37-4.27c0.32-0.51,0.8-0.81,1.35-1.02c0.95,1.24,0.04,4.9-1.72,6.36
			c-0.05-0.27,0.02-0.48,0.11-0.7c0.29-0.7,0.57-1.4,0.85-2.1c0.12-0.28,0.25-0.56,0.08-1c-0.44,0.43-0.46,0.94-0.67,1.36
			c-0.22,0.44-0.38,0.9-0.57,1.35c-0.19,0.45-0.37,0.89-0.62,1.34C15.23,81.58,15.21,81.12,15.23,80.68 M11.37,72.91
			c0.15-0.32,0.36-0.61,0.74-0.71c0.34,0.8-0.3,2.89-1.18,3.68C10.99,74.83,10.92,73.83,11.37,72.91 M4.28,68.33
			c1.14,0.48,1.93,1.26,2.37,2.4c0.24,0.62,0.16,0.83-0.43,1.15c-0.07,0.04-0.19,0.1-0.19,0.16c-0.01,0.5-0.41,0.46-0.71,0.5
			c-0.8,0.1-1.57,0.08-2.3-0.4c-0.29-0.19-0.39-0.41-0.39-0.7c0.01-0.33,0.12-0.61,0.48-0.72c0.18-0.05,0.36-0.13,0.68-0.25
			c-0.24-0.18-0.37-0.27-0.5-0.36c-0.25-0.18-0.52-0.33-0.73-0.55c-0.21-0.22-0.29-0.5-0.08-0.78c0.21-0.28,0.49-0.29,0.78-0.18
			c0.22,0.09,0.43,0.22,0.68,0.34C4.05,68.73,4.16,68.53,4.28,68.33 M3.21,63.85c0.92-0.01,1.71,0.3,2.45,0.67
			c0.75,0.37,0.84,1.25,1.31,1.87c-0.11,0.04-0.24,0.06-0.38,0.06C5.48,66.46,3.58,65.22,3.21,63.85 M9.13,65.47
			c0.41-0.37,0.82-0.76,1.18-1.18c0.43-0.49,0.96-0.6,1.56-0.55c0.38,0.03,0.75,0.1,1.18,0.16c-0.06,0.15-0.09,0.27-0.15,0.37
			c-0.23,0.43-0.46,0.86-0.7,1.29c-0.54,0.94-1.37,1.39-2.41,1.48c-0.03-0.05-0.07-0.1-0.1-0.15c0.4-0.4,0.8-0.8,1.21-1.2
			c0.21-0.21,0.45-0.32,0.69,0.06c0.09-0.61-0.12-0.84-0.51-0.65c-0.33,0.16-0.62,0.42-0.91,0.65c-0.4,0.32-0.77,0.67-1.18,0.98
			c-0.11,0.09-0.3,0.08-0.53,0.14C8.6,66.26,8.74,65.81,9.13,65.47 M6.94,61.32c0.23-0.91,0.59-1.76,1.18-2.5
			c0.36-0.46,0.76-0.66,1.57-0.78c0.23,0.3,0.11,0.55-0.03,0.78c-0.23,0.4-0.46,0.81-0.75,1.17c-0.47,0.59-0.98,1.14-1.49,1.69
			c-0.11,0.12-0.28,0.2-0.54,0.37C6.9,61.73,6.89,61.52,6.94,61.32 M2.86,56.02c-0.75-0.05-1.49-0.13-2.26-0.19
			c0.02-0.7,0.25-1.27,0.54-1.77c0.45-0.79,2.06-1.08,2.82-0.55c0.15,0.1,0.24,0.28,0.43,0.51c-0.29,0.04-0.57,0-0.84-0.03
			c-0.37-0.05-0.72-0.1-1.06,0.06c-0.03,0.32,0.19,0.33,0.38,0.36c0.33,0.04,0.66,0.05,0.99,0.1c0.23,0.04,0.45,0.12,0.7,0.19
			c-0.32,0.62-0.82,0.94-1.33,1.25c-0.1,0.06-0.23,0.1-0.34,0.1C2.89,56.02,2.88,56.02,2.86,56.02 M7.17,51.98
			c-0.22,1.07-0.4,2.14-0.6,3.21c-0.03,0.18-0.08,0.36-0.11,0.54c-0.04,0.01-0.09,0.02-0.13,0.03c-0.24-0.63-1.03-0.84-1.1-1.59
			c-0.01-0.05-0.09-0.09-0.14-0.14c-0.15-0.15-0.3-0.31-0.44-0.46c-0.12-0.13-0.22-0.29-0.36-0.39c-1.02-0.72-2.82-0.47-3.48,0.57
			C0.37,54.47,0.16,55.3,0,56.16c0.19,0.07,0.33,0.15,0.47,0.17c0.64,0.06,1.29,0.11,1.93,0.16c0.66,0.06,1.22-0.17,1.7-0.62
			c0.3-0.28,0.61-0.57,0.95-0.89c0.8,0.67,1.32,1.38,1.18,2.47c-0.13,1.04-0.2,2.08-0.28,3.13c-0.02,0.19,0.01,0.4,0.05,0.59
			c0.18,0.94,0.38,1.87,0.57,2.81c0.05,0.26,0.07,0.53,0.1,0.8c-0.46-0.55-1.05-0.75-1.64-0.94c-0.34-0.11-0.67-0.26-1.02-0.32
			c-0.41-0.07-0.84-0.08-1.26-0.08c-0.14,0-0.28,0.14-0.47,0.24c0.39,0.51,0.73,0.95,1.07,1.38c0.65,0.83,1.51,1.38,2.51,1.7
			c0.34,0.11,0.69,0.17,1.04,0.23c0.27,0.05,0.46,0.18,0.52,0.44c0.09,0.39,0.2,0.78,0.25,1.17c0.13,0.85-0.06,1.79,0.75,2.43
			c0.04,0.04,0.05,0.12,0.07,0.19c0.18,0.61,0.36,1.22,0.57,1.93c-0.67-0.47-1.26-0.89-1.86-1.32c-0.01-0.02-0.03-0.07-0.03-0.11
			c0.03-1.77-1.05-2.85-2.38-3.76c-0.32-0.22-0.68-0.24-0.98,0.06c-0.21,0.2-0.42,0.19-0.67,0.13c-0.43-0.09-0.8,0.04-1.05,0.41
			c-0.27,0.4-0.19,0.81,0.05,1.19c0.14,0.22,0.33,0.41,0.51,0.63c-0.79,0.68-0.49,1.45-0.17,2.2c0.13,0.32,0.29,0.64,0.78,0.59
			c-0.04-0.16-0.06-0.28-0.09-0.41c0.91,0.38,1.83,0.27,2.74,0.07c0.17-0.03,0.33-0.14,0.47-0.24c0.5-0.34,0.7-0.36,1.19-0.03
			c0.4,0.28,0.79,0.58,1.15,0.91c0.51,0.46,0.91,0.98,1.15,1.67c0.26,0.75,0.5,1.54,1.09,2.14c0.06,0.06,0.04,0.19,0.05,0.25
			c-0.62-0.12-1.2-0.3-1.79-0.33c-0.7-0.04-1.42,0.06-2.13,0.09c-0.6,0.02-1.12,0.26-1.61,0.58c-0.47,0.31-0.49,0.55-0.02,0.82
			c0.59,0.35,1.2,0.67,1.83,0.96c1.05,0.48,2.1,0.54,3.12-0.13c0.11-0.07,0.23-0.14,0.35-0.18c0.37-0.14,0.74-0.26,1.14-0.41
			c0.35,0.59,0.65,1.11,0.96,1.61c0.16,0.26,0.32,0.53,0.52,0.77c0.35,0.43,0.73,0.84,1.1,1.25c0.13,0.14,0.27,0.33,0.44,0.38
			c1.09,0.32,1.62,1.24,2.34,2.13c-0.73-0.06-1.33-0.1-2.09-0.16c-0.33,0.11-0.82,0.31-1.34,0.45c-0.55,0.15-0.99,0.46-1.23,0.95
			c-0.52,1.1-0.55,2.27-0.24,3.44c0.01,0.04,0.04,0.08,0.06,0.12c0.31,0.41,0.58,0.85,0.93,1.22c0.29,0.3,0.59,0.65,1.11,0.72
			c0-0.17,0.04-0.31-0.01-0.42c-0.18-0.42-0.11-0.76,0.24-1.07c0.17-0.16,0.29-0.4,0.37-0.63c0.2-0.6,0.48-1.15,0.88-1.64
			c0.34-0.42,0.48-0.9,0.45-1.43c-0.02-0.35-0.04-0.7-0.07-1.16c0.59,0.11,1.13,0.22,1.66,0.32c0.83,0.84,2.02,1.33,2.45,2.59
			c0.47-0.26,0.78-0.02,1.09,0.25c0.35,0.3,0.74,0.57,1.11,0.86c0.11,0.09,0.2,0.2,0.32,0.33c-0.47,0.17-0.84,0.05-1.22-0.07
			c-0.67-0.2-1.35-0.36-1.85,0.35c-0.05,0.07-0.14,0.11-0.22,0.15c-0.97,0.58-1.14,1.51-0.98,2.5c0.19,1.15,0.85,2.05,1.8,2.7
			c0.51,0.35,1.08,0.62,1.62,0.91c0.18,0.1,0.38,0.16,0.51-0.13c-0.04-0.06-0.06-0.15-0.12-0.21c-0.48-0.47-0.55-1.04-0.4-1.67
			c0.06-0.24,0.12-0.47,0.19-0.71c0.3-1.01,0.53-2.03,0.11-3.07c-0.01-0.03,0.03-0.07,0.05-0.1c0.37-0.07,0.73-0.14,1.07-0.2
			c0.77,0.45,1.55,0.89,2.34,1.35c0.05-0.16,0.1-0.34,0.16-0.53c-0.05-0.03-0.1-0.07-0.14-0.1c0.15-3.57,0-4.72-0.75-5.39
			c-1.16,1.42-1.01,2.98-0.48,4.63c-0.35,0.02-0.56-0.18-0.75-0.32c-0.76-0.58-1.49-1.2-2.25-1.78c-0.26-0.2-0.37-0.41-0.28-0.74
			c0.1-0.34,0.15-0.69,0.23-1.04c0.27-1.24,0.22-2.48-0.06-3.71c-0.06-0.28-0.13-0.56-0.19-0.84c-0.65-0.18-1.03-0.05-1.31,0.54
			c-0.52,1.09-0.75,2.23-0.55,3.44c0.02,0.15,0.06,0.31,0.08,0.46c0,0.04-0.01,0.08-0.03,0.19c-1.44-0.95-2.35-2.38-3.56-3.57
			c0.21-0.26,0.36-0.51,0.57-0.7c1.49-1.42,2.06-3.23,2.26-5.2c0.01-0.09,0-0.18-0.01-0.27c-0.03-0.83-0.52-1.63-0.07-2.59
			c-0.51,0.16-0.91,0.16-1.04,0.65c-0.03,0.11-0.15,0.22-0.25,0.28c-1.19,0.64-1.7,1.77-2.11,2.96c-0.38,1.12-0.61,2.28-0.58,3.47
			c0,0.11-0.02,0.21-0.04,0.4c-0.16-0.1-0.27-0.15-0.36-0.23c-0.88-0.85-1.39-1.94-1.96-2.99c-0.05-0.1-0.09-0.21-0.15-0.3
			c-0.35-0.56-0.71-1.11-1.06-1.66c0.97-1.62,1.72-3.23,1.48-5.18c-0.71,0.06-1.21,0.33-1.51,0.9c-0.3,0.57-0.53,1.18-0.57,1.84
			c-0.01,0.23-0.06,0.46-0.1,0.69c-0.05,0.01-0.1,0.01-0.15,0.02c-0.25-0.63-0.55-1.25-0.75-1.9c-0.45-1.44-0.88-2.89-1.28-4.35
			c-0.11-0.4-0.08-0.83-0.11-1.22c0.38-0.27,0.72-0.18,1.03-0.1c1.04,0.25,1.88-0.17,2.66-0.76c0.2-0.15,0.36-0.39,0.5-0.61
			c0.25-0.4,0.44-0.82,0.69-1.22c0.15-0.24,0.35-0.46,0.55-0.66c0.29-0.3,0.29-0.64-0.07-0.7c-0.98-0.16-1.98-0.39-2.95,0.04
			c-0.18,0.08-0.33,0.22-0.48,0.35c-0.89,0.78-1.77,1.56-2.22,2.79c-0.16-0.17-0.29-0.27-0.34-0.39c-0.23-0.51-0.7-3.13-0.67-3.65
			c0.98-0.71,1.78-1.61,2.5-2.56c0.54-0.7,0.89-1.53,0.92-2.48c-0.55-0.26-1.01,0.01-1.47,0.19c-0.8,0.31-1.21,1.01-1.6,1.71
			c-0.2,0.35-0.33,0.73-0.49,1.1c-0.05,0.11-0.11,0.22-0.28,0.31c-0.01-0.25-0.06-0.51-0.04-0.76c0.09-0.97,0.17-1.95,0.3-2.92
			c0.14-1.06,0.33-2.11,0.51-3.16c0.1-0.6,0.29-1.15,0.71-1.62c0.23-0.26,0.45-0.54,0.67-0.81c-0.21,0.04-0.41,0.07-0.6,0.07
			C8.02,51.67,8,51.68,7.99,51.69c-0.04,0.05-0.1,0.08-0.16,0.11c-0.01,0-0.01,0-0.02,0c-0.01,0-0.01,0,0,0
			c0.01-0.05,0.02-0.09,0.04-0.14c-0.21-0.01-0.4-0.04-0.57-0.09C7.24,51.7,7.2,51.84,7.17,51.98"/>
	</defs>
	<clipPath id="SVGID_100_">
		<use xlink:href="#SVGID_99_"  style="overflow:visible;"/>
	</clipPath>
	
		<linearGradient id="SVGID_101_" gradientUnits="userSpaceOnUse" x1="0" y1="125.6244" x2="1" y2="125.6244" gradientTransform="matrix(69.2027 -60.192 -60.192 -69.2027 7565.6436 8775.3848)">
		<stop  offset="0" style="stop-color:#EEC65F"/>
		<stop  offset="0.23" style="stop-color:#A76F2A"/>
		<stop  offset="0.33" style="stop-color:#E2B755"/>
		<stop  offset="0.58" style="stop-color:#E2B755"/>
		<stop  offset="0.69" style="stop-color:#8F5D21"/>
		<stop  offset="1" style="stop-color:#E2B755"/>
	</linearGradient>
	<polygon class="st33" points="-22.27,70.94 14.81,38.68 48.29,77.17 11.2,109.43 	"/>
</g>
<g>
	<defs>
		<path id="SVGID_102_" d="M13.57,39.53c1.26-1.52,2.83-1.79,4.58-1.43c-0.3,0.5-1.78,1.13-2.9,1.2c0.6-0.3,1.27-0.43,1.91-0.76
			c-0.24-0.29-0.46-0.26-0.67-0.19c-0.64,0.19-1.27,0.39-1.9,0.6c-0.25,0.08-0.49,0.16-0.54,0.5c-0.02,0.12-0.07,0.16-0.15,0.16
			C13.82,39.61,13.7,39.55,13.57,39.53 M8.88,35.71c1.43,0.18,2.94,2.78,2.42,4.27c-0.14-0.53-0.25-1.07-0.42-1.6
			c-0.1-0.34-0.25-0.67-0.41-0.98c-0.12-0.23-0.33-0.35-0.59-0.13c0.2,0.45,0.44,0.87,0.59,1.32c0.14,0.46,0.19,0.94,0.21,1.44
			C9.93,38.66,9.19,37.29,8.88,35.71 M13.34,31.3c-0.3-1.3-0.63-2.6-0.3-3.94c0.15-0.6,0.37-1.19,0.86-1.71
			c1.68,2.36,2.6,4.9,2.33,7.81c-0.12-0.47-0.22-0.94-0.38-1.4c-0.41-1.2-0.84-2.39-1.27-3.58c-0.04-0.11-0.23-0.26-0.32-0.25
			c-0.23,0.03-0.22,0.25-0.17,0.43c0.09,0.3,0.17,0.6,0.3,0.88c0.55,1.18,0.92,2.41,1.22,3.67c0.05,0.18,0.03,0.38,0.05,0.57
			c-0.05,0.02-0.1,0.04-0.15,0.06C14.55,33.19,13.63,32.54,13.34,31.3 M24.11,25.25c-0.09,0.47-0.09,0.97-0.08,1.45
			c0,0.28,0.1,0.57,0.15,0.85c0.09,0.51,0.07,0.5-0.4,0.77c-0.61,0.36-1.24,0.72-1.79,1.15c-1.67,1.29-3.25,2.7-4.76,4.17
			c-0.1,0.1-0.23,0.16-0.44,0.31c0-0.79,0.04-1.48-0.01-2.16c-0.1-1.25-0.3-2.48-0.85-3.62c-0.44-0.9-0.94-1.77-1.46-2.62
			c-0.2-0.32-0.4-0.6-0.28-0.99c-0.48-0.01-0.65,0.11-0.77,0.47c-0.11,0.33-0.23,0.67-0.4,0.98c-0.54,0.99-0.8,2.04-0.62,3.15
			c0.14,0.88,0.36,1.74,0.53,2.62c0.13,0.67,0.54,1.15,1.05,1.57c0.48,0.4,0.97,0.78,1.46,1.16c0.12,0.09,0.25,0.17,0.41,0.27
			c-1.37,1.76-2.79,3.34-3.79,5.23c-0.01-1.25-0.43-2.35-1.07-3.35c-0.72-1.14-2.1-1.91-2.83-1.73c0.1,0.43,0.18,0.81,0.26,1.19
			c0.05,0.22,0.09,0.44,0.17,0.64c0.27,0.68,0.54,1.36,0.84,2.03c0.44,0.97,0.82,1.98,1.75,2.63c0.03,0.02,0.02,0.08,0.04,0.15
			c-0.05,0.08-0.1,0.18-0.16,0.27c-0.25,0.4-0.46,0.81-0.67,1.22c0.18,0.01,0.37,0.02,0.57,0.04l0.01,0
			c0.5-0.92,1.05-1.82,1.59-2.72c0.15-0.25,0.37-0.32,0.62-0.3c1.77,0.11,3.37-0.47,4.91-1.25c0.31-0.16,0.6-0.38,0.88-0.61
			c0.27-0.22,0.2-0.47-0.13-0.6c-0.1-0.04-0.22-0.06-0.33-0.06c-0.89-0.02-1.78-0.1-2.67-0.03c-0.46,0.04-0.91,0.31-1.36,0.51
			c-0.24,0.11-0.44,0.29-0.75,0.37c0.16-0.24,0.31-0.49,0.48-0.73c1.25-1.69,2.74-3.15,4.31-4.54c0.85-0.76,0.98-0.73,1.83,0
			c0.53,0.46,1.14,0.85,1.71,1.26c0.11,0.08,0.24,0.12,0.35,0.2c0.47,0.36,0.97,0.56,1.49,0.71c0.03-0.03,0.06-0.07,0.1-0.1
			c-0.17-0.17-0.33-0.36-0.45-0.58c-0.26-0.12-0.51-0.26-0.74-0.45c-0.28-0.21-0.63-0.32-0.92-0.52c-0.49-0.34-0.95-0.72-1.37-1.18
			c0.4,0,0.82-0.06,1.21,0.01c0.52,0.09,1.04,0.21,1.56,0.32c0.05-0.18,0.12-0.35,0.19-0.51c-0.72-0.13-1.45-0.25-2.17-0.38
			c-0.12-0.02-0.25-0.04-0.37-0.07c0.73-0.39,1.43-0.61,2.25-0.53c0.27,0.03,0.53,0.07,0.8,0.11c0.1-0.14,0.2-0.28,0.3-0.43
			c-0.5-0.08-1.01-0.18-1.51-0.25c-0.32-0.04-0.66,0.06-0.98,0.12c-0.26,0.05-0.5,0.15-0.81,0.14c0.29-0.25,0.55-0.54,0.86-0.76
			c0.7-0.5,1.4-1.05,2.17-1.43c0.59-0.29,1.13-0.6,1.65-1.01c0.15-0.12,0.33-0.2,0.5-0.29c0.01-0.05,0.04-0.1,0.05-0.15l0.29-1.52
			c0.01-0.05,0.02-0.1,0.03-0.14c-0.15,0.01-0.28-0.03-0.42-0.05c-0.29,0.86-0.73,1.6-1.29,1.96c-0.26-0.61-0.26-1.6-0.09-2.61
			c-0.18-0.17-0.32-0.36-0.44-0.57C24.22,24.71,24.16,24.98,24.11,25.25"/>
	</defs>
	<clipPath id="SVGID_103_">
		<use xlink:href="#SVGID_102_"  style="overflow:visible;"/>
	</clipPath>
	
		<linearGradient id="SVGID_104_" gradientUnits="userSpaceOnUse" x1="0" y1="125.6051" x2="1" y2="125.6051" gradientTransform="matrix(69.2028 -60.1921 -60.1921 -69.2028 7546.4258 8753.2891)">
		<stop  offset="0" style="stop-color:#EEC65F"/>
		<stop  offset="0.23" style="stop-color:#A76F2A"/>
		<stop  offset="0.33" style="stop-color:#E2B755"/>
		<stop  offset="0.58" style="stop-color:#E2B755"/>
		<stop  offset="0.69" style="stop-color:#8F5D21"/>
		<stop  offset="1" style="stop-color:#E2B755"/>
	</linearGradient>
	<polygon class="st34" points="-1.09,32.48 18.62,15.34 35.79,35.07 16.07,52.22 	"/>
</g>
<g>
	<defs>
		<path id="SVGID_105_" d="M98.45,81.62c0,2.6,1.67,4.27,4.31,4.27c1.32,0,2.55-0.58,3.14-1.39l-0.48-0.55
			c-0.56,0.63-1.39,1.14-2.63,1.14c-2.08,0-3.48-1.38-3.48-3.48c0-2.02,1.22-3.47,3.29-3.47c1.24,0,1.95,0.4,2.64,1.06l0.51-0.54
			c-0.54-0.69-1.64-1.32-3.13-1.32C100.06,77.35,98.45,79.23,98.45,81.62"/>
	</defs>
	<clipPath id="SVGID_106_">
		<use xlink:href="#SVGID_105_"  style="overflow:visible;"/>
	</clipPath>
	
		<linearGradient id="SVGID_107_" gradientUnits="userSpaceOnUse" x1="0" y1="125.626" x2="1" y2="125.626" gradientTransform="matrix(298.3524 0 0 -298.3524 99.3148 37562.4336)">
		<stop  offset="0" style="stop-color:#EEC65F"/>
		<stop  offset="0.23" style="stop-color:#A76F2A"/>
		<stop  offset="0.33" style="stop-color:#E2B755"/>
		<stop  offset="0.58" style="stop-color:#E2B755"/>
		<stop  offset="0.69" style="stop-color:#8F5D21"/>
		<stop  offset="1" style="stop-color:#E2B755"/>
	</linearGradient>
	<rect x="98.45" y="77.35" class="st35" width="7.45" height="8.55"/>
</g>
<g>
	<defs>
		<polygon id="SVGID_108_" points="109.76,77.45 109.76,78.24 112.74,78.24 112.74,85.78 113.58,85.78 113.58,78.24 116.56,78.24 
			116.56,77.45 		"/>
	</defs>
	<clipPath id="SVGID_109_">
		<use xlink:href="#SVGID_108_"  style="overflow:visible;"/>
	</clipPath>
	
		<linearGradient id="SVGID_110_" gradientUnits="userSpaceOnUse" x1="0" y1="125.626" x2="1" y2="125.626" gradientTransform="matrix(298.348 0 0 -298.348 99.3149 37561.8906)">
		<stop  offset="0" style="stop-color:#EEC65F"/>
		<stop  offset="0.23" style="stop-color:#A76F2A"/>
		<stop  offset="0.33" style="stop-color:#E2B755"/>
		<stop  offset="0.58" style="stop-color:#E2B755"/>
		<stop  offset="0.69" style="stop-color:#8F5D21"/>
		<stop  offset="1" style="stop-color:#E2B755"/>
	</linearGradient>
	<rect x="109.76" y="77.45" class="st36" width="6.8" height="8.33"/>
</g>
<g>
	<defs>
		<path id="SVGID_111_" d="M127.32,77.45l-2.64,5.47l-3.53-5.47h-0.99l4.08,6.31c-0.37,0.75-0.7,1.21-1.11,1.21
			c-0.1,0-0.23-0.04-0.3-0.07l-0.36,0.69c0.17,0.13,0.42,0.19,0.61,0.19c0.83,0,1.37-0.68,1.94-1.88l3.15-6.45H127.32z"/>
	</defs>
	<clipPath id="SVGID_112_">
		<use xlink:href="#SVGID_111_"  style="overflow:visible;"/>
	</clipPath>
	
		<linearGradient id="SVGID_113_" gradientUnits="userSpaceOnUse" x1="0" y1="125.626" x2="1" y2="125.626" gradientTransform="matrix(298.3497 0 0 -298.3497 99.315 37562.0977)">
		<stop  offset="0" style="stop-color:#EEC65F"/>
		<stop  offset="0.23" style="stop-color:#A76F2A"/>
		<stop  offset="0.33" style="stop-color:#E2B755"/>
		<stop  offset="0.58" style="stop-color:#E2B755"/>
		<stop  offset="0.69" style="stop-color:#8F5D21"/>
		<stop  offset="1" style="stop-color:#E2B755"/>
	</linearGradient>
	<rect x="120.16" y="77.45" class="st37" width="8.02" height="8.33"/>
</g>
<g>
	<defs>
		<path id="SVGID_114_" d="M134.65,79.16v-0.93h3.79v6.78h-4.91C134.29,83.83,134.65,81.17,134.65,79.16 M133.85,77.45V79
			c0,3.57-0.7,5.22-1.23,6.01h-0.88v2.33h0.8v-1.56h7.03v1.56h0.8v-2.33h-1.08v-7.56H133.85z"/>
	</defs>
	<clipPath id="SVGID_115_">
		<use xlink:href="#SVGID_114_"  style="overflow:visible;"/>
	</clipPath>
	
		<linearGradient id="SVGID_116_" gradientUnits="userSpaceOnUse" x1="0" y1="125.626" x2="1" y2="125.626" gradientTransform="matrix(298.351 0 0 -298.351 99.3148 37563.0469)">
		<stop  offset="0" style="stop-color:#EEC65F"/>
		<stop  offset="0.23" style="stop-color:#A76F2A"/>
		<stop  offset="0.33" style="stop-color:#E2B755"/>
		<stop  offset="0.58" style="stop-color:#E2B755"/>
		<stop  offset="0.69" style="stop-color:#8F5D21"/>
		<stop  offset="1" style="stop-color:#E2B755"/>
	</linearGradient>
	<rect x="131.74" y="77.45" class="st38" width="8.63" height="9.89"/>
</g>
<g>
	<defs>
		<polygon id="SVGID_117_" points="151.18,77.45 145.81,84.36 145.81,77.45 144.97,77.45 144.97,85.78 145.7,85.78 151.08,78.88 
			151.08,85.78 151.92,85.78 151.92,77.45 		"/>
	</defs>
	<clipPath id="SVGID_118_">
		<use xlink:href="#SVGID_117_"  style="overflow:visible;"/>
	</clipPath>
	
		<linearGradient id="SVGID_119_" gradientUnits="userSpaceOnUse" x1="0" y1="125.626" x2="1" y2="125.626" gradientTransform="matrix(298.3495 0 0 -298.3495 99.3151 37562.0781)">
		<stop  offset="0" style="stop-color:#EEC65F"/>
		<stop  offset="0.23" style="stop-color:#A76F2A"/>
		<stop  offset="0.33" style="stop-color:#E2B755"/>
		<stop  offset="0.58" style="stop-color:#E2B755"/>
		<stop  offset="0.69" style="stop-color:#8F5D21"/>
		<stop  offset="1" style="stop-color:#E2B755"/>
	</linearGradient>
	<rect x="144.97" y="77.45" class="st39" width="6.95" height="8.33"/>
</g>
<g>
	<defs>
		<path id="SVGID_120_" d="M157.93,80.05c0-1.01,0.62-1.82,2.23-1.82h2.52v3.58h-2.76C158.64,81.69,157.93,80.98,157.93,80.05
			 M160.27,77.45c-2.21,0-3.23,1.15-3.23,2.56c0,1.31,0.86,2.22,2.24,2.46l-2.78,3.31h1.04l2.66-3.19h2.49v3.19h0.84v-8.33H160.27z"
			/>
	</defs>
	<clipPath id="SVGID_121_">
		<use xlink:href="#SVGID_120_"  style="overflow:visible;"/>
	</clipPath>
	
		<linearGradient id="SVGID_122_" gradientUnits="userSpaceOnUse" x1="0" y1="125.626" x2="1" y2="125.626" gradientTransform="matrix(298.3532 0 0 -298.3532 99.3145 37562.5391)">
		<stop  offset="0" style="stop-color:#EEC65F"/>
		<stop  offset="0.23" style="stop-color:#A76F2A"/>
		<stop  offset="0.33" style="stop-color:#E2B755"/>
		<stop  offset="0.58" style="stop-color:#E2B755"/>
		<stop  offset="0.69" style="stop-color:#8F5D21"/>
		<stop  offset="1" style="stop-color:#E2B755"/>
	</linearGradient>
	<rect x="156.49" y="77.45" class="st40" width="7.03" height="8.33"/>
</g>
<g>
	<defs>
		<path id="SVGID_123_" d="M178.05,79.16v-0.93h3.79v6.78h-4.92C177.69,83.83,178.05,81.17,178.05,79.16 M177.25,77.45V79
			c0,3.57-0.7,5.22-1.23,6.01h-0.88v2.33h0.8v-1.56h7.03v1.56h0.8v-2.33h-1.09v-7.56H177.25z"/>
	</defs>
	<clipPath id="SVGID_124_">
		<use xlink:href="#SVGID_123_"  style="overflow:visible;"/>
	</clipPath>
	
		<linearGradient id="SVGID_125_" gradientUnits="userSpaceOnUse" x1="0" y1="125.626" x2="1" y2="125.626" gradientTransform="matrix(298.351 0 0 -298.351 -16.8048 37563.0469)">
		<stop  offset="0" style="stop-color:#EEC65F"/>
		<stop  offset="0.23" style="stop-color:#A76F2A"/>
		<stop  offset="0.33" style="stop-color:#E2B755"/>
		<stop  offset="0.58" style="stop-color:#E2B755"/>
		<stop  offset="0.69" style="stop-color:#8F5D21"/>
		<stop  offset="1" style="stop-color:#E2B755"/>
	</linearGradient>
	<rect x="175.14" y="77.45" class="st41" width="8.63" height="9.89"/>
</g>
<g>
	<defs>
		<polygon id="SVGID_126_" points="188.37,77.45 188.37,85.78 194.43,85.78 194.43,85 189.21,85 189.21,81.94 193.98,81.94 
			193.98,81.15 189.21,81.15 189.21,78.24 194.31,78.24 194.31,77.45 		"/>
	</defs>
	<clipPath id="SVGID_127_">
		<use xlink:href="#SVGID_126_"  style="overflow:visible;"/>
	</clipPath>
	
		<linearGradient id="SVGID_128_" gradientUnits="userSpaceOnUse" x1="0" y1="125.626" x2="1" y2="125.626" gradientTransform="matrix(298.3542 0 0 -298.3542 -16.8065 37562.6602)">
		<stop  offset="0" style="stop-color:#EEC65F"/>
		<stop  offset="0.23" style="stop-color:#A76F2A"/>
		<stop  offset="0.33" style="stop-color:#E2B755"/>
		<stop  offset="0.58" style="stop-color:#E2B755"/>
		<stop  offset="0.69" style="stop-color:#8F5D21"/>
		<stop  offset="1" style="stop-color:#E2B755"/>
	</linearGradient>
	<rect x="188.37" y="77.45" class="st42" width="6.06" height="8.33"/>
</g>
<g>
	<defs>
		<polygon id="SVGID_129_" points="199.52,77.45 199.52,85.78 200.37,85.78 200.37,78.24 205.65,78.24 205.65,85.78 206.5,85.78 
			206.5,77.45 		"/>
	</defs>
	<clipPath id="SVGID_130_">
		<use xlink:href="#SVGID_129_"  style="overflow:visible;"/>
	</clipPath>
	
		<linearGradient id="SVGID_131_" gradientUnits="userSpaceOnUse" x1="0" y1="125.626" x2="1" y2="125.626" gradientTransform="matrix(298.3517 0 0 -298.3517 -16.8048 37562.3516)">
		<stop  offset="0" style="stop-color:#EEC65F"/>
		<stop  offset="0.23" style="stop-color:#A76F2A"/>
		<stop  offset="0.33" style="stop-color:#E2B755"/>
		<stop  offset="0.58" style="stop-color:#E2B755"/>
		<stop  offset="0.69" style="stop-color:#8F5D21"/>
		<stop  offset="1" style="stop-color:#E2B755"/>
	</linearGradient>
	<rect x="199.52" y="77.45" class="st43" width="6.98" height="8.33"/>
</g>
<g>
	<defs>
		<polygon id="SVGID_132_" points="218.12,77.45 212.75,84.36 212.75,77.45 211.91,77.45 211.91,85.78 212.63,85.78 218.01,78.88 
			218.01,85.78 218.86,85.78 218.86,77.45 		"/>
	</defs>
	<clipPath id="SVGID_133_">
		<use xlink:href="#SVGID_132_"  style="overflow:visible;"/>
	</clipPath>
	
		<linearGradient id="SVGID_134_" gradientUnits="userSpaceOnUse" x1="0" y1="125.626" x2="1" y2="125.626" gradientTransform="matrix(298.3569 0 0 -298.3569 -16.8086 37563.0078)">
		<stop  offset="0" style="stop-color:#EEC65F"/>
		<stop  offset="0.23" style="stop-color:#A76F2A"/>
		<stop  offset="0.33" style="stop-color:#E2B755"/>
		<stop  offset="0.58" style="stop-color:#E2B755"/>
		<stop  offset="0.69" style="stop-color:#8F5D21"/>
		<stop  offset="1" style="stop-color:#E2B755"/>
	</linearGradient>
	<rect x="211.91" y="77.45" class="st44" width="6.95" height="8.33"/>
</g>
<g>
	<defs>
		<path id="SVGID_135_" d="M225.18,77.45v1.71c0,5.34-1.03,5.81-1.84,5.81v0.81c0.1,0.04,0.26,0.04,0.43,0.04
			c1.07,0.01,2.26-1.49,2.26-6.13v-1.46h3.91v7.56h0.84v-8.33H225.18z"/>
	</defs>
	<clipPath id="SVGID_136_">
		<use xlink:href="#SVGID_135_"  style="overflow:visible;"/>
	</clipPath>
	
		<linearGradient id="SVGID_137_" gradientUnits="userSpaceOnUse" x1="0" y1="125.626" x2="1" y2="125.626" gradientTransform="matrix(298.3548 0 0 -298.3548 -16.8074 37562.7539)">
		<stop  offset="0" style="stop-color:#EEC65F"/>
		<stop  offset="0.23" style="stop-color:#A76F2A"/>
		<stop  offset="0.33" style="stop-color:#E2B755"/>
		<stop  offset="0.58" style="stop-color:#E2B755"/>
		<stop  offset="0.69" style="stop-color:#8F5D21"/>
		<stop  offset="1" style="stop-color:#E2B755"/>
	</linearGradient>
	<rect x="223.34" y="77.45" class="st45" width="7.45" height="8.38"/>
</g>
<g>
	<defs>
		<path id="SVGID_138_" d="M236.81,80.05c0-1.01,0.62-1.82,2.23-1.82h2.52v3.58h-2.76C237.51,81.69,236.81,80.98,236.81,80.05
			 M239.14,77.45c-2.21,0-3.22,1.15-3.22,2.56c0,1.31,0.86,2.22,2.24,2.46l-2.78,3.31h1.04l2.66-3.19h2.49v3.19h0.84v-8.33H239.14z"
			/>
	</defs>
	<clipPath id="SVGID_139_">
		<use xlink:href="#SVGID_138_"  style="overflow:visible;"/>
	</clipPath>
	
		<linearGradient id="SVGID_140_" gradientUnits="userSpaceOnUse" x1="0" y1="125.626" x2="1" y2="125.626" gradientTransform="matrix(298.3465 0 0 -298.3465 -16.8006 37561.6953)">
		<stop  offset="0" style="stop-color:#EEC65F"/>
		<stop  offset="0.23" style="stop-color:#A76F2A"/>
		<stop  offset="0.33" style="stop-color:#E2B755"/>
		<stop  offset="0.58" style="stop-color:#E2B755"/>
		<stop  offset="0.69" style="stop-color:#8F5D21"/>
		<stop  offset="1" style="stop-color:#E2B755"/>
	</linearGradient>
	<rect x="235.37" y="77.45" class="st46" width="7.03" height="8.33"/>
</g>
<g>
	<defs>
		<polygon id="SVGID_141_" points="253.68,77.45 253.68,85 248.65,85 248.65,77.45 247.8,77.45 247.8,85.78 254.81,85.78 
			254.81,87.34 255.61,87.34 255.61,85 254.52,85 254.52,77.45 		"/>
	</defs>
	<clipPath id="SVGID_142_">
		<use xlink:href="#SVGID_141_"  style="overflow:visible;"/>
	</clipPath>
	
		<linearGradient id="SVGID_143_" gradientUnits="userSpaceOnUse" x1="0" y1="125.626" x2="1" y2="125.626" gradientTransform="matrix(298.3466 0 0 -298.3466 -16.7998 37562.4844)">
		<stop  offset="0" style="stop-color:#EEC65F"/>
		<stop  offset="0.23" style="stop-color:#A76F2A"/>
		<stop  offset="0.33" style="stop-color:#E2B755"/>
		<stop  offset="0.58" style="stop-color:#E2B755"/>
		<stop  offset="0.69" style="stop-color:#8F5D21"/>
		<stop  offset="1" style="stop-color:#E2B755"/>
	</linearGradient>
	<rect x="247.8" y="77.45" class="st47" width="7.81" height="9.89"/>
</g>
<g>
	<defs>
		<polygon id="SVGID_144_" points="266.42,77.45 261.05,84.36 261.05,77.45 260.21,77.45 260.21,85.78 260.93,85.78 266.31,78.88 
			266.31,85.78 267.16,85.78 267.16,77.45 		"/>
	</defs>
	<clipPath id="SVGID_145_">
		<use xlink:href="#SVGID_144_"  style="overflow:visible;"/>
	</clipPath>
	
		<linearGradient id="SVGID_146_" gradientUnits="userSpaceOnUse" x1="0" y1="125.626" x2="1" y2="125.626" gradientTransform="matrix(298.3563 0 0 -298.3563 -16.8093 37562.9336)">
		<stop  offset="0" style="stop-color:#EEC65F"/>
		<stop  offset="0.23" style="stop-color:#A76F2A"/>
		<stop  offset="0.33" style="stop-color:#E2B755"/>
		<stop  offset="0.58" style="stop-color:#E2B755"/>
		<stop  offset="0.69" style="stop-color:#8F5D21"/>
		<stop  offset="1" style="stop-color:#E2B755"/>
	</linearGradient>
	<rect x="260.21" y="77.45" class="st48" width="6.95" height="8.33"/>
</g>
<g>
	<defs>
		<polygon id="SVGID_147_" points="278.77,77.45 273.4,84.36 273.4,77.45 272.55,77.45 272.55,85.78 273.28,85.78 278.66,78.88 
			278.66,85.78 279.5,85.78 279.5,77.45 		"/>
	</defs>
	<clipPath id="SVGID_148_">
		<use xlink:href="#SVGID_147_"  style="overflow:visible;"/>
	</clipPath>
	
		<linearGradient id="SVGID_149_" gradientUnits="userSpaceOnUse" x1="0" y1="125.626" x2="1" y2="125.626" gradientTransform="matrix(298.3502 0 0 -298.3502 -16.8033 37562.1602)">
		<stop  offset="0" style="stop-color:#EEC65F"/>
		<stop  offset="0.23" style="stop-color:#A76F2A"/>
		<stop  offset="0.33" style="stop-color:#E2B755"/>
		<stop  offset="0.58" style="stop-color:#E2B755"/>
		<stop  offset="0.69" style="stop-color:#8F5D21"/>
		<stop  offset="1" style="stop-color:#E2B755"/>
	</linearGradient>
	<rect x="272.55" y="77.45" class="st49" width="6.95" height="8.33"/>
</g>
<g>
	<defs>
		<rect id="SVGID_150_" y="0" width="279.5" height="125.63"/>
	</defs>
	<clipPath id="SVGID_151_">
		<use xlink:href="#SVGID_150_"  style="overflow:visible;"/>
	</clipPath>
	<path class="st50" d="M98.45,66.54V38.6h11.3c9.42,0,11.62,4.75,11.62,9.18c0,4.59-2.95,9.18-11.66,9.18h-6.43v9.58H98.45z
		 M103.28,43.11v9.34h6.35c4.71,0,6.71-1.84,6.71-4.71c0-2.67-1.68-4.63-6.43-4.63H103.28z"/>
	<rect x="133.5" y="38.6" class="st50" width="4.83" height="27.94"/>
	<polygon class="st50" points="172.02,66.54 156.61,47.5 156.61,66.54 151.9,66.54 151.9,38.6 155.65,38.6 171.06,57.72 
		171.06,38.6 175.77,38.6 175.77,66.54 	"/>
	<path class="st50" d="M213.57,61.67c-2.32,3.27-6.59,5.19-11.34,5.19c-8.78,0-14.37-5.63-14.37-14.29
		c0-7.98,5.63-14.29,14.29-14.29c5.07,0,9.06,2.04,10.98,4.83l-3.19,3.03c-1.92-2.12-4.51-3.23-7.54-3.23c-5.75,0-9.5,3.83-9.5,9.66
		c0,5.83,3.99,9.66,9.7,9.66c3.51,0,6.23-1.4,8.14-3.67L213.57,61.67z"/>
	<polygon class="st50" points="224.94,38.6 245.7,38.6 245.7,43.15 229.77,43.15 229.77,50.18 244.66,50.18 244.66,54.57 
		229.77,54.57 229.77,61.99 246.1,61.99 246.1,66.54 224.94,66.54 	"/>
	<polygon class="st50" points="255.91,38.6 279.5,38.6 279.5,43.15 270.12,43.15 270.12,66.54 265.29,66.54 265.29,43.15 
		255.91,43.15 	"/>
</g>
</svg>
